<svg width="33" height="31" viewBox="0 0 33 31" fill="none" xmlns="http://www.w3.org/2000/svg">
<path d="M18.2418 30C16.9965 29.8877 15.8392 29.2971 15.0039 28.3474C13.0839 26.6862 11.3396 24.8243 9.79951 22.7921C9.21002 22.1232 4.72149 16.9899 4.49412 12.8121C4.45512 12.0245 4.53261 11.2355 4.724 10.4716C5.19835 8.90772 6.1701 7.55006 7.48536 6.61359C10.4328 4.63599 15.1664 5.29549 16.9357 7.54652C17.3568 8.08821 17.7997 8.95234 18.4936 8.94546C19.1876 8.93859 19.5682 8.08563 20.0507 7.48375C21.1546 6.38792 22.575 5.68466 24.1013 5.47835C25.6275 5.27203 27.1783 5.57364 28.5234 6.33844C29.7015 7.13038 30.5967 8.29056 31.075 9.64533C31.4386 10.6569 31.579 11.7379 31.486 12.8112C31.2418 17.1654 27.6754 21.2839 26.9191 22.1266C25.2581 24.4515 23.3485 26.5801 21.2255 28.473C20.4503 29.3414 19.3872 29.8855 18.2418 30Z" fill="#86BCFF" stroke="#050A4E" stroke-miterlimit="10"/>
<path d="M17.226 9.56476V8.18516C17.226 8.10681 17.2102 8.02921 17.1796 7.95684C17.149 7.88446 17.1041 7.8188 17.0475 7.76346C16.9909 7.70811 16.9238 7.66414 16.8499 7.63427C16.776 7.6044 16.6969 7.5892 16.6169 7.58937H15.2099C14.7939 7.58937 14.3948 7.42735 14.1006 7.13888C13.8064 6.85041 13.6411 6.45913 13.6411 6.05117C13.6411 5.64322 13.8064 5.25193 14.1006 4.96346C14.3948 4.67499 14.7939 4.51298 15.2099 4.51298H16.6183C16.7796 4.51298 16.9343 4.45027 17.0485 4.33857C17.1626 4.22686 17.227 4.07533 17.2273 3.91718V2.53758C17.2273 2.12979 17.3925 1.73869 17.6866 1.45034C17.9807 1.162 18.3796 1.00002 18.7955 1.00002C19.2114 1.00002 19.6103 1.162 19.9043 1.45034C20.1984 1.73869 20.3637 2.12979 20.3637 2.53758V3.91844C20.3636 3.9968 20.3794 4.07439 20.41 4.14677C20.4407 4.21914 20.4855 4.2848 20.5421 4.34015C20.5987 4.3955 20.6658 4.43947 20.7397 4.46933C20.8136 4.4992 20.8928 4.51441 20.9727 4.51424H22.3784C22.7866 4.52586 23.1741 4.69302 23.4586 4.98022C23.7432 5.26742 23.9023 5.65204 23.9023 6.05244C23.9023 6.45283 23.7432 6.83745 23.4586 7.12465C23.1741 7.41185 22.7866 7.57901 22.3784 7.59063H20.97C20.8089 7.59063 20.6543 7.65345 20.5403 7.7652C20.4264 7.87694 20.3623 8.0284 20.3623 8.18643V9.56476C20.3684 9.77052 20.3323 9.97536 20.2562 10.1672C20.1801 10.359 20.0656 10.5339 19.9193 10.6816C19.773 10.8292 19.598 10.9466 19.4046 11.0267C19.2112 11.1069 19.0034 11.1482 18.7935 11.1482C18.5836 11.1482 18.3757 11.1069 18.1824 11.0267C17.989 10.9466 17.814 10.8292 17.6677 10.6816C17.5214 10.5339 17.4068 10.359 17.3307 10.1672C17.2546 9.97536 17.2186 9.77052 17.2247 9.56476H17.226Z" fill="#FF8E93" stroke="#2D2D2D" stroke-width="0.833333"/>
<path d="M0.568176 18.1487H7.20486C7.45332 18.1487 7.57755 18.1487 7.6917 18.1215C7.86634 18.0799 8.02658 17.9921 8.15559 17.8673C8.23991 17.7857 8.30677 17.681 8.44048 17.4716L8.53331 17.3262C8.79428 16.9175 8.92476 16.7131 9.06708 16.6052C9.42122 16.3365 9.91017 16.3339 10.2672 16.5987C10.4107 16.7051 10.5434 16.908 10.8087 17.3139V17.3139C11.143 17.8251 11.3101 18.0807 11.4751 18.1931C11.8883 18.4743 12.4456 18.4073 12.7804 18.0362C12.9141 17.888 13.0159 17.6001 13.2195 17.0243L13.4118 16.4806C13.9956 14.8298 14.2875 14.0044 14.6883 13.8314C14.977 13.7067 15.3075 13.7251 15.5806 13.881C15.9597 14.0975 16.1582 14.9502 16.5551 16.6555L17.019 18.6484C17.4268 20.4004 17.6307 21.2765 18.0488 21.487C18.2875 21.6073 18.5645 21.6269 18.8179 21.5415C19.2614 21.3921 19.5869 20.5536 20.238 18.8767L20.4654 18.2908C20.6773 17.7449 20.7833 17.472 20.919 17.329C21.2528 16.9775 21.7907 16.9161 22.1952 17.1832C22.3597 17.2918 22.5245 17.5338 22.8541 18.0178V18.0178C23.0627 18.324 23.1669 18.4771 23.2864 18.5718C23.5766 18.8019 23.9703 18.8527 24.3095 18.7039C24.4491 18.6426 24.5888 18.5211 24.8683 18.2779L25.2028 17.9868" stroke="black" stroke-linecap="round"/>
<path d="M29.5849 17.9873H25.6956C25.5794 17.9873 25.5213 17.9873 25.4652 17.9936C25.3019 18.0121 25.1457 18.0705 25.0104 18.1638C24.9639 18.1958 24.9201 18.2339 24.8324 18.3102V18.3102C24.5867 18.524 24.4639 18.6309 24.3434 18.6891C23.9862 18.8616 23.5607 18.8067 23.259 18.5491C23.1573 18.4621 23.0656 18.3276 22.8823 18.0584L22.8549 18.0182C22.5253 17.5342 22.3605 17.2922 22.196 17.1836C21.7915 16.9165 21.2536 16.978 20.9198 17.3295C20.7841 17.4724 20.6781 17.7454 20.4662 18.2913L20.2387 18.8771C19.5877 20.5541 19.2622 21.3926 18.8187 21.542C18.5653 21.6273 18.2883 21.6077 18.0496 21.4874C17.6315 21.2769 17.4276 20.4008 17.0198 18.6487C16.8642 17.9802 16.7112 17.3232 16.556 16.6562C16.159 14.9507 15.9605 14.098 15.5814 13.8815C15.3083 13.7255 14.9777 13.7071 14.689 13.8318C14.2882 14.0049 13.9964 14.8303 13.4126 16.481L13.2203 17.0247C13.0167 17.6005 12.9149 17.8885 12.7812 18.0367C12.4464 18.4078 11.889 18.4748 11.4759 18.1935C11.3109 18.0812 11.1438 17.8256 10.8095 17.3144V17.3144C10.5442 16.9085 10.4115 16.7056 10.268 16.5991C9.91097 16.3343 9.42201 16.337 9.06787 16.6056C8.92555 16.7136 8.79507 16.9179 8.5341 17.3267L8.43209 17.4864C8.29893 17.695 8.23235 17.7992 8.14814 17.8808C8.02494 18 7.87314 18.0856 7.70733 18.1293C7.59399 18.1591 7.47031 18.1621 7.22295 18.1681L6.65805 18.1818" stroke="white" stroke-linecap="round"/>
</svg>
