<svg width="50" height="43" viewBox="0 0 50 43" fill="none" xmlns="http://www.w3.org/2000/svg">
<path opacity="0.3" d="M25.4892 40.3277C20.8848 37.0524 16.9038 32.9226 13.7468 28.1467C12.413 26.7304 11.659 24.8342 11.6426 22.8546C11.6401 21.8723 11.8247 20.8992 12.1858 19.991C12.5469 19.0829 13.0774 18.2576 13.7468 17.5626C17.1159 12.9776 21.0656 8.88453 25.4892 5.39385C26.8545 4.0101 28.6831 3.22781 30.5921 3.21081C31.5394 3.20814 32.4779 3.39961 33.3536 3.77425C34.2294 4.14889 35.025 4.6993 35.695 5.39385C40.0572 8.95983 43.9986 13.047 47.4374 17.5705C48.7717 18.9865 49.5261 20.8828 49.5425 22.8626C49.5448 23.8449 49.3601 24.8181 48.9988 25.7263C48.6376 26.6344 48.107 27.4596 47.4374 28.1546C44.0018 32.6814 40.0601 36.7692 35.695 40.3321C34.8256 41.2174 33.7598 41.8675 32.5913 42.2253C31.9418 42.4209 31.2684 42.5182 30.5921 42.5143C29.7426 42.4943 28.9026 42.3237 28.1084 42.0101C27.1382 41.6312 26.2485 41.0598 25.4892 40.3277Z" fill="#C7DCFF"/>
<path d="M31.8918 42.1796C27.9073 42.3623 23.5225 42.4802 18.7942 42.4802C14.7912 42.4802 10.4037 42.3959 5.69789 42.1796C4.64332 42.185 3.59898 41.9769 2.63024 41.5683C1.83756 41.1914 1.35536 40.6706 1.35536 40.1007C0.751858 35.9046 0.526394 31.6647 0.681584 27.4298C0.623094 23.4575 0.830517 19.4858 1.30251 15.5401C1.30251 15.4002 1.39103 14.6657 2.63024 14.0712C3.64151 13.658 4.71032 13.3961 5.80094 13.294C7.03463 13.151 8.27633 13.0847 9.51857 13.0958C12.0617 12.9934 15.3778 12.9662 19.0399 12.9753C23.8752 12.9817 28.2217 13.0402 31.8456 13.294C32.9228 13.3538 33.978 13.6177 34.9528 14.0712C35.2684 14.2001 35.5484 14.4003 35.77 14.6556C35.9916 14.9109 36.1484 15.2141 36.2277 15.5401C36.8277 19.5802 37.0673 23.6638 36.9438 27.7447C36.9449 31.8738 36.7058 35.9995 36.2277 40.1019C36.1535 40.4429 35.9916 40.7597 35.7574 41.022C35.5231 41.2843 35.2243 41.4834 34.8894 41.6006C33.9348 41.9721 32.9188 42.1684 31.8918 42.1796Z" fill="white" stroke="#2D2D2D" stroke-width="0.833333" stroke-miterlimit="10"/>
<path d="M26.6046 42.1097C24.1976 42.3364 21.5487 42.4815 18.6938 42.4815C16.2748 42.4815 13.6246 42.3766 10.7816 42.1097C10.0888 42.0999 9.42649 41.829 8.93198 41.3533C8.68842 41.1154 8.49504 40.8329 8.36288 40.5217C8.23073 40.2106 8.16239 39.8769 8.16177 39.5398C7.73372 34.795 7.74298 29.8897 7.75354 24.3315C7.76279 18.9999 7.75354 13.7436 8.16177 9.16329C8.16993 8.48395 8.44595 7.83404 8.93198 7.34981C9.17443 7.11071 9.46258 6.92081 9.77995 6.79101C10.0973 6.66121 10.4377 6.59407 10.7816 6.59336C16.025 5.8012 21.3612 5.8012 26.6046 6.59336C27.2974 6.60304 27.9598 6.87393 28.4542 7.34981C28.6981 7.58746 28.8916 7.87 29.0238 8.18121C29.156 8.49241 29.2242 8.82618 29.2244 9.16329C29.6432 13.8018 29.8018 18.9118 29.8031 24.3315C29.8031 29.8081 29.6446 34.8611 29.2244 39.5398C29.2227 40.2213 28.9459 40.8744 28.4545 41.3564C27.9631 41.8385 27.2971 42.1102 26.602 42.1123L26.6046 42.1097Z" fill="white" stroke="#2D2D2D" stroke-width="0.833333" stroke-miterlimit="10"/>
<path d="M17.8985 34.7937H19.6886C20.0763 34.8206 20.4375 34.9967 20.6936 35.2834C20.9497 35.5701 21.0799 35.9444 21.056 36.3248C21.056 36.3248 21.1299 37.1343 21.1299 38.6563C21.1299 40.1783 21.056 42.4127 21.056 42.4127H16.5311C16.5311 42.4127 16.4413 40.1796 16.4413 38.6563C16.4413 37.133 16.5311 36.3248 16.5311 36.3248C16.5071 35.9444 16.6374 35.5701 16.8935 35.2834C17.1495 34.9967 17.5107 34.8206 17.8985 34.7937Z" fill="white" stroke="#2D2D2D" stroke-width="0.833333" stroke-miterlimit="10"/>
<path d="M15.7543 18.1825H13.8717C13.142 18.1825 12.5505 18.7624 12.5505 19.4778V21.3237C12.5505 22.039 13.142 22.619 13.8717 22.619H15.7543C16.4839 22.619 17.0754 22.039 17.0754 21.3237V19.4778C17.0754 18.7624 16.4839 18.1825 15.7543 18.1825Z" fill="white" stroke="#2D2D2D" stroke-width="0.833333" stroke-miterlimit="10"/>
<path d="M23.9875 18.1825H22.1049C21.3753 18.1825 20.7838 18.7624 20.7838 19.4778V21.3237C20.7838 22.039 21.3753 22.619 22.1049 22.619H23.9875C24.7171 22.619 25.3086 22.039 25.3086 21.3237V19.4778C25.3086 18.7624 24.7171 18.1825 23.9875 18.1825Z" fill="#1778F2"/>
<path d="M15.7543 26.1448H13.8717C13.142 26.1448 12.5505 26.7248 12.5505 27.4402V29.286C12.5505 30.0014 13.142 30.5813 13.8717 30.5813H15.7543C16.4839 30.5813 17.0754 30.0014 17.0754 29.286V27.4402C17.0754 26.7248 16.4839 26.1448 15.7543 26.1448Z" fill="#1778F2"/>
<path d="M23.9875 26.1448H22.1049C21.3753 26.1448 20.7838 26.7248 20.7838 27.4402V29.286C20.7838 30.0014 21.3753 30.5813 22.1049 30.5813H23.9875C24.7171 30.5813 25.3086 30.0014 25.3086 29.286V27.4402C25.3086 26.7248 24.7171 26.1448 23.9875 26.1448Z" fill="white" stroke="#2D2D2D" stroke-width="0.833333" stroke-miterlimit="10"/>
<path d="M17.226 9.56475V8.18515C17.226 8.10679 17.2102 8.0292 17.1796 7.95682C17.149 7.88445 17.1041 7.81879 17.0475 7.76344C16.991 7.70809 16.9238 7.66412 16.8499 7.63426C16.776 7.60439 16.6969 7.58918 16.617 7.58935H15.21C14.7939 7.58935 14.3949 7.42733 14.1006 7.13886C13.8064 6.8504 13.6411 6.45911 13.6411 6.05116C13.6411 5.6432 13.8064 5.25191 14.1006 4.96345C14.3949 4.67498 14.7939 4.51296 15.21 4.51296H16.6183C16.7796 4.51296 16.9343 4.45026 17.0485 4.33855C17.1627 4.22685 17.227 4.07531 17.2273 3.91716V2.53756C17.2273 2.12978 17.3925 1.73867 17.6866 1.45033C17.9807 1.16198 18.3796 1 18.7955 1C19.2114 1 19.6103 1.16198 19.9044 1.45033C20.1985 1.73867 20.3637 2.12978 20.3637 2.53756V3.91843C20.3637 3.99678 20.3794 4.07438 20.4101 4.14675C20.4407 4.21913 20.4856 4.28479 20.5421 4.34013C20.5987 4.39548 20.6659 4.43945 20.7397 4.46932C20.8136 4.49919 20.8928 4.5144 20.9727 4.51423H22.3784C22.7866 4.52584 23.1741 4.69301 23.4586 4.98021C23.7432 5.26741 23.9023 5.65202 23.9023 6.05242C23.9023 6.45282 23.7432 6.83743 23.4586 7.12463C23.1741 7.41183 22.7866 7.579 22.3784 7.59062H20.9701C20.8089 7.59062 20.6543 7.65344 20.5404 7.76518C20.4264 7.87692 20.3624 8.02838 20.3624 8.18641V9.56475C20.3684 9.7705 20.3324 9.97535 20.2563 10.1672C20.1802 10.359 20.0656 10.5339 19.9193 10.6816C19.773 10.8292 19.598 10.9466 19.4046 11.0267C19.2113 11.1069 19.0035 11.1482 18.7935 11.1482C18.5836 11.1482 18.3758 11.1069 18.1824 11.0267C17.989 10.9466 17.814 10.8292 17.6677 10.6816C17.5215 10.5339 17.4069 10.359 17.3308 10.1672C17.2547 9.97535 17.2186 9.7705 17.2247 9.56475H17.226Z" fill="#FF8E93" stroke="white" stroke-width="0.833333"/>
</svg>
