<svg width="44" height="38" viewBox="0 0 44 38" fill="none" xmlns="http://www.w3.org/2000/svg">
<path opacity="0.3" d="M22.3228 34.5171C18.3523 31.7155 14.9194 28.1832 12.197 24.098C11.0469 22.8866 10.3967 21.2647 10.3825 19.5715C10.3803 18.7312 10.5395 17.8988 10.8509 17.1221C11.1623 16.3453 11.6197 15.6394 12.197 15.0449C15.1023 11.1231 18.5082 7.6221 22.3228 4.63633C23.5001 3.45274 25.077 2.78361 26.7231 2.76907C27.54 2.76678 28.3493 2.93056 29.1045 3.251C29.8596 3.57145 30.5458 4.04225 31.1235 4.63633C34.8851 7.68651 38.2838 11.1824 41.2493 15.0517C42.3999 16.2628 43.0504 17.8849 43.0645 19.5782C43.0665 20.4185 42.9072 21.2509 42.5957 22.0277C42.2842 22.8045 41.8266 23.5103 41.2493 24.1048C38.2867 27.9768 34.8876 31.4733 31.1235 34.5209C30.3738 35.2781 29.4547 35.8342 28.447 36.1402C27.887 36.3075 27.3063 36.3908 26.7231 36.3874C25.9905 36.3702 25.2662 36.2244 24.5814 35.9561C23.7447 35.6321 22.9775 35.1433 22.3228 34.5171Z" fill="#C7DCFF"/>
<path d="M1.57097 33.6189C1.64234 34.3399 1.95748 35.014 2.46313 35.5276C2.96878 36.0412 3.63405 36.3628 4.34693 36.4384C10.9858 37.1573 17.6817 37.1573 24.3206 36.4384C25.0304 36.3638 25.6934 36.0453 26.1989 35.5361C26.7044 35.0268 27.0218 34.3576 27.0981 33.6403C27.8187 27.0269 27.8302 20.3542 27.1323 13.7384C27.0498 12.9645 26.6867 12.249 26.1131 11.7298C25.5394 11.2107 24.7959 10.9247 24.0259 10.9272H4.6514C3.87785 10.9256 3.13133 11.2149 2.55694 11.7387C1.98255 12.2624 1.62131 12.9834 1.54335 13.7615C1.21854 17.0765 1.05877 20.4059 1.06467 23.7371C1.08258 27.2988 1.27303 30.6053 1.57097 33.6189Z" fill="white" stroke="#2D2D2D" stroke-linecap="round" stroke-linejoin="round"/>
<path d="M8.13454 14.2198C8.13454 14.2198 7.53216 3.52154 14.4126 3.53965C21.2929 3.55775 20.7378 14.2198 20.7378 14.2198H22.3886C22.5597 14.2198 22.7239 14.1518 22.8458 14.0304C22.9676 13.9091 23.0374 13.7441 23.0399 13.5713C23.0399 10.9132 22.4814 1 14.3637 1C6.24591 1 5.76893 10.9279 5.78846 13.5762C5.79229 13.7482 5.86261 13.912 5.98433 14.0322C6.10605 14.1525 6.26954 14.2198 6.43975 14.2198H8.13454Z" fill="#86BCFF" stroke="#2D2D2D" stroke-linecap="round" stroke-linejoin="round"/>
<path d="M14.395 29.3093C17.245 29.3093 19.5554 26.9328 19.5554 24.0012C19.5554 21.0695 17.245 18.693 14.395 18.693C11.5451 18.693 9.23471 21.0695 9.23471 24.0012C9.23471 26.9328 11.5451 29.3093 14.395 29.3093Z" fill="#FF8E93" stroke="#2D2D2D" stroke-linecap="round" stroke-linejoin="round"/>
<path d="M13.0866 26.0866V25.4721C13.0866 25.3239 13.0277 25.1818 12.923 25.0771C12.8182 24.9723 12.6761 24.9134 12.5279 24.9134H11.9134C11.7935 24.9134 11.6747 24.8898 11.5639 24.8439C11.453 24.798 11.3523 24.7307 11.2675 24.6459C11.1827 24.5611 11.1154 24.4604 11.0695 24.3495C11.0236 24.2387 11 24.1199 11 24C11 23.8801 11.0236 23.7613 11.0695 23.6505C11.1154 23.5396 11.1827 23.4389 11.2675 23.3541C11.3523 23.2693 11.453 23.202 11.5639 23.1561C11.6747 23.1102 11.7935 23.0866 11.9134 23.0866H12.5279C12.676 23.0863 12.8179 23.0273 12.9226 22.9226C13.0273 22.8179 13.0863 22.676 13.0866 22.5279V21.9134C13.0866 21.6712 13.1828 21.4388 13.3541 21.2675C13.5254 21.0962 13.7577 21 14 21C14.2422 21 14.4746 21.0962 14.6459 21.2675C14.8172 21.4388 14.9134 21.6712 14.9134 21.9134V22.5279C14.9134 22.6761 14.9723 22.8182 15.077 22.9229C15.1818 23.0277 15.3239 23.0866 15.4721 23.0866H16.0866C16.3288 23.0866 16.5612 23.1828 16.7325 23.3541C16.9038 23.5254 17 23.7578 17 24C17 24.2422 16.9038 24.4746 16.7325 24.6459C16.5612 24.8172 16.3288 24.9134 16.0866 24.9134H15.4709C15.3228 24.9134 15.1807 24.9723 15.0759 25.0771C14.9711 25.1818 14.9122 25.3239 14.9122 25.4721V26.0866C14.9122 26.3288 14.816 26.5612 14.6447 26.7325C14.4734 26.9038 14.2411 27 13.9988 27C13.7566 27 13.5242 26.9038 13.3529 26.7325C13.1816 26.5612 13.0854 26.3288 13.0854 26.0866H13.0866Z" fill="white" stroke="#2D2D2D" stroke-width="0.4"/>
</svg>
