<svg width="50" height="43" viewBox="0 0 50 43" fill="none" xmlns="http://www.w3.org/2000/svg">
<path opacity="0.3" d="M25.1337 37.8363C20.5293 34.5403 16.5483 30.3846 13.3913 25.5785C12.0575 24.1534 11.3035 22.2452 11.2871 20.2532C11.2846 19.2647 11.4692 18.2854 11.8303 17.3715C12.1914 16.4577 12.7218 15.6272 13.3913 14.9279C16.7604 10.314 20.7101 6.19513 25.1337 2.68247C26.499 1.29 28.3276 0.502793 30.2366 0.485685C31.1839 0.482991 32.1224 0.675673 32.9981 1.05267C33.8738 1.42967 34.6695 1.98355 35.3395 2.68247C39.7017 6.27091 43.643 10.3838 47.0819 14.9358C48.4162 16.3607 49.1706 18.269 49.187 20.2612C49.1893 21.2497 49.0045 22.229 48.6433 23.1429C48.2821 24.0568 47.7514 24.8872 47.0819 25.5865C43.6463 30.1418 39.7046 34.2554 35.3395 37.8407C34.4701 38.7316 33.4043 39.3858 32.2357 39.7458C31.5862 39.9427 30.9129 40.0406 30.2366 40.0366C29.387 40.0165 28.547 39.8449 27.7529 39.5292C26.7827 39.148 25.893 38.573 25.1337 37.8363Z" fill="#C7DCFF"/>
<path d="M8.80597 30.2259C8.01762 32.0998 7.22927 33.9737 6.44092 35.8476C8.37034 36.6691 10.2221 37.6622 11.9739 38.8149C14.7468 40.639 15.099 41.4363 16.6343 41.8194C17.7732 42.1012 18.3669 41.861 24.569 39.4114C27.6136 38.1371 30.7224 37.0219 33.8828 36.0702C34.6645 35.8448 35.3153 35.6723 35.7569 35.5568C35.8118 35.542 37.1204 35.1687 37.1388 34.5637C37.1564 34.0305 36.1591 33.6298 35.7344 33.4593C32.4129 32.1254 27.3454 34.0841 27.3454 34.0841C24.2232 35.2927 18.8071 35.4321 8.80597 30.2259Z" fill="white"/>
<path d="M33.7912 32.9417L32.6277 34.9623L33.587 36.371L37.0014 35.0666L36.2338 33.5171L33.7912 32.9417Z" fill="white"/>
<path d="M22.5166 34.6798C24.8561 34.441 27.1776 34.0509 29.4667 33.5121C31.4754 33.036 33.2784 32.4817 35.3342 33.2303C35.697 33.3613 37.1408 33.8854 37.138 34.5685C37.138 35.5158 34.3693 36.1349 31.7451 36.8477C21.8433 39.5381 19.7867 43.1731 16.0975 41.6327C15.9567 41.575 16.118 41.6327 11.1604 38.4422C9.18833 37.1745 8.20724 36.5336 7.87551 36.3342C5.99302 35.2159 4.00996 34.2762 1.9523 33.5276" stroke="#2D2D2D" stroke-width="0.8" stroke-miterlimit="10" stroke-linecap="round"/>
<path d="M19.0415 36.7302C20.0651 36.2092 21.145 35.8074 22.2602 35.5329C24.7725 34.9166 26.3086 35.2392 26.7037 34.4222C27.015 33.7785 26.5248 32.6255 25.7064 32.0015C23.5857 30.3816 20.5382 33.2861 17.902 31.6592C17.2413 31.1673 16.5035 30.7886 15.7186 30.5386C15.0533 30.3445 14.3594 30.2676 13.6677 30.3112C12.8482 30.3872 12.0516 30.6227 11.3224 31.0042C10.2892 31.4395 8.38118 31.1521 4.53568 27.8348" fill="white"/>
<path d="M19.0415 36.7302C20.0651 36.2092 21.145 35.8074 22.2602 35.5329C24.7725 34.9166 26.3086 35.2392 26.7037 34.4222C27.015 33.7785 26.5248 32.6255 25.7064 32.0015C23.5857 30.3816 20.5382 33.2861 17.902 31.6592C17.2413 31.1673 16.5035 30.7886 15.7186 30.5386C15.0533 30.3445 14.3594 30.2676 13.6677 30.3112C12.8482 30.3872 12.0516 30.6227 11.3224 31.0042C10.2892 31.4395 8.38118 31.1521 4.53568 27.8348" stroke="#2D2D2D" stroke-width="0.8" stroke-miterlimit="10" stroke-linecap="round"/>
<path d="M10.5928 30.5893C10.3301 31.4211 10.0216 32.2966 9.66032 33.2051C9.20815 34.3419 8.72923 35.3885 8.25171 36.34C8.15497 36.5663 8.01372 36.7708 7.83634 36.9414C7.65896 37.112 7.44908 37.2452 7.21919 37.333C6.74249 37.5149 6.21347 37.5025 5.7458 37.2985C5.11193 37.0759 4.44495 36.814 3.74558 36.5048C3.15115 36.2414 2.59826 35.9709 2.08764 35.7026C1.63507 35.5017 1.28053 35.1296 1.10162 34.6679C1.01923 34.4422 0.986321 34.2015 1.00516 33.9619C1.02399 33.7224 1.09413 33.4898 1.21079 33.2797C1.69977 32.1446 2.24606 31.0351 2.84757 29.9554C3.43215 28.9053 4.03082 27.951 4.6168 27.0931C4.75241 26.8595 4.93645 26.6576 5.15657 26.501C5.3767 26.3444 5.6278 26.2367 5.89299 26.1853C6.16281 26.1335 6.44056 26.1399 6.70773 26.2039C6.9749 26.2679 7.22538 26.3881 7.44247 26.5565C7.93329 26.8619 8.40662 27.1947 8.86024 27.5531C9.27122 27.8776 9.66498 28.2235 10.0399 28.5891C10.2733 28.7729 10.4585 29.0108 10.5794 29.2821C10.6111 29.3545 10.6375 29.4291 10.6583 29.5054C10.7457 29.8651 10.7229 30.2427 10.5928 30.5893Z" fill="#86BCFF" stroke="#2D2D2D" stroke-width="0.8" stroke-miterlimit="10" stroke-linecap="round"/>
<path d="M22.335 26.1381C21.2934 26.0461 20.3256 25.5624 19.6269 24.7844C18.0212 23.4237 16.5623 21.8986 15.2743 20.2339C14.7813 19.686 11.0274 15.4812 10.8372 12.059C10.8046 11.4139 10.8694 10.7677 11.0295 10.1419C11.4262 8.86088 12.2389 7.74878 13.3389 6.9817C15.804 5.3618 19.7629 5.90201 21.2426 7.74588C21.5948 8.1896 21.9652 8.89743 22.5456 8.8918C23.1259 8.88616 23.4443 8.18748 23.8478 7.69447C24.771 6.79685 25.959 6.22079 27.2354 6.0518C28.5119 5.8828 29.8089 6.12985 30.9338 6.75632C31.9191 7.40502 32.6678 8.35535 33.0679 9.46508C33.372 10.2937 33.4893 11.1792 33.4116 12.0583C33.2073 15.6249 30.2246 18.9985 29.5921 19.6888C28.203 21.5932 26.6058 23.3368 24.8303 24.8873C24.182 25.5986 23.2929 26.0443 22.335 26.1381Z" fill="#FF8E93" stroke="#2D2D2D" stroke-width="0.8" stroke-miterlimit="10"/>
</svg>
