<svg width="56" height="42" viewBox="0 0 56 42" fill="none" xmlns="http://www.w3.org/2000/svg">
<path opacity="0.3" d="M31.1337 38.8363C26.5293 35.5403 22.5483 31.3846 19.3913 26.5785C18.0575 25.1534 17.3035 23.2452 17.2871 21.2532C17.2846 20.2647 17.4692 19.2854 17.8303 18.3715C18.1914 17.4577 18.7219 16.6272 19.3913 15.9279C22.7604 11.314 26.7101 7.19513 31.1337 3.68247C32.499 2.29 34.3276 1.50279 36.2366 1.48568C37.1839 1.48299 38.1224 1.67567 38.9981 2.05267C39.8738 2.42967 40.6695 2.98355 41.3395 3.68247C45.7017 7.27091 49.6431 11.3838 53.0819 15.9358C54.4162 17.3607 55.1706 19.269 55.187 21.2612C55.1893 22.2497 55.0046 23.229 54.6433 24.1429C54.2821 25.0568 53.7515 25.8872 53.0819 26.5865C49.6463 31.1418 45.7046 35.2554 41.3395 38.8407C40.4701 39.7316 39.4043 40.3858 38.2357 40.7458C37.5862 40.9427 36.9129 41.0406 36.2366 41.0366C35.3871 41.0165 34.547 40.8449 33.7529 40.5292C32.7827 40.148 31.893 39.573 31.1337 38.8363Z" fill="#C7DCFF"/>
<rect x="0.5" y="0.5" width="40.3254" height="39.3174" rx="11.5" fill="white" stroke="#050A4E"/>
<path d="M24.142 13.2865C23.7232 13.2775 23.3051 13.2437 22.8899 13.1855C22.041 13.078 21.187 13.0208 20.332 13.0144C19.5438 13.0113 18.7561 13.0568 17.973 13.1509C16.9577 13.3676 15.902 13.2237 14.974 12.7422C13.8574 12.1133 12.9091 11.2032 12.2152 10.0945C12.1178 9.9375 12.0827 9.74712 12.1174 9.56361C12.1521 9.38009 12.2537 9.21777 12.401 9.11107C12.5482 9.00437 12.7294 8.96156 12.9063 8.99174C13.0831 9.02191 13.2418 9.12274 13.3488 9.27281C13.9137 10.1845 14.6867 10.9355 15.5986 11.4582C16.2927 11.8125 17.0836 11.9031 17.8349 11.7142C18.4615 11.6507 19.2612 11.5807 20.3341 11.5711C21.2384 11.5765 22.1417 11.6373 23.0393 11.7529C23.8483 11.9777 24.7086 11.8772 25.4498 11.4712C26.2973 10.9353 27.0038 10.1879 27.5058 9.29644C27.6038 9.13486 27.7593 9.02056 27.9381 8.97861C28.1169 8.93666 28.3043 8.97048 28.4591 9.07274C28.614 9.17499 28.7235 9.33726 28.7637 9.52383C28.8039 9.71039 28.7715 9.90602 28.6735 10.0676C28.0496 11.1601 27.1757 12.074 26.13 12.7273C25.529 13.1004 24.8413 13.2939 24.142 13.2865Z" fill="#86BCFF"/>
<path d="M25.4799 16.4782C24.976 16.4782 24.4493 16.4319 23.8361 16.3803C22.9519 16.3028 21.8502 16.2082 20.3415 16.2071C18.9048 16.2017 17.9279 16.2825 17.1189 16.3438C15.8332 16.5555 14.5172 16.4256 13.2923 15.9662C11.9026 15.4058 10.6566 14.5163 9.65234 13.3678C9.52743 13.2281 9.46084 13.0422 9.46722 12.8512C9.47359 12.6602 9.55242 12.4797 9.68634 12.3493C9.82027 12.219 9.99834 12.1496 10.1814 12.1562C10.3644 12.1629 10.5374 12.2452 10.6623 12.3849C11.5232 13.3696 12.5899 14.134 13.7798 14.6187C14.8172 15.0014 15.9313 15.1002 17.0158 14.9058C17.8506 14.8424 18.9677 14.7693 20.3435 14.765C21.9079 14.765 23.0395 14.865 23.9505 14.9446C25.119 15.1783 26.3267 15.0688 27.439 14.6283C28.5415 14.1326 29.5161 13.3721 30.2834 12.4086C30.4036 12.2675 30.572 12.1812 30.7524 12.1683C30.9329 12.1554 31.111 12.217 31.2484 12.3398C31.3859 12.4625 31.4717 12.6365 31.4874 12.8246C31.5031 13.0126 31.4475 13.1996 31.3325 13.3453C30.4256 14.4814 29.2735 15.377 27.9708 15.9587C27.1847 16.3127 26.336 16.4898 25.4799 16.4782Z" fill="#86BCFF"/>
<path d="M25.4799 20.1002C24.9759 20.1002 24.4493 20.054 23.8361 20.0024C22.9519 19.9249 21.8502 19.8313 20.3415 19.8292C18.8822 19.8292 17.9278 19.9044 17.1188 19.9657C15.8333 20.1769 14.5174 20.0475 13.2923 19.5893C11.9027 19.0277 10.6568 18.1376 9.65234 16.9889C9.52743 16.8491 9.46084 16.6633 9.46722 16.4723C9.47359 16.2813 9.55242 16.1007 9.68634 15.9704C9.82027 15.84 9.99834 15.7706 10.1814 15.7773C10.3644 15.7839 10.5374 15.8661 10.6623 16.0058C11.5228 16.9919 12.5906 17.7566 13.7818 18.2396C14.8191 18.6232 15.9334 18.722 17.0179 18.5267C17.8506 18.4633 18.9182 18.3934 20.3445 18.3859C21.911 18.3859 23.0426 18.4859 23.9516 18.5655C25.12 18.7999 26.3279 18.6905 27.44 18.2493C28.5423 17.7531 29.5168 16.9926 30.2844 16.0296C30.4046 15.8885 30.573 15.8022 30.7535 15.7893C30.9339 15.7765 31.112 15.838 31.2494 15.9607C31.3869 16.0834 31.4727 16.2575 31.4884 16.4455C31.5042 16.6335 31.4485 16.8206 31.3336 16.9663C30.4263 18.1018 29.2743 18.9969 27.9718 19.5786C27.1857 19.9337 26.3365 20.1114 25.4799 20.1002Z" fill="#86BCFF"/>
<path d="M24.4899 24.3515C24.0519 24.3515 23.5943 24.3052 23.0697 24.2515C22.0931 24.1423 21.1118 24.0848 20.1295 24.0793C18.9516 24.0793 18.1034 24.1547 17.4201 24.216C16.2981 24.4306 15.1403 24.294 14.0924 23.8235C12.8642 23.2248 11.7943 22.323 10.9749 21.1961C10.866 21.0459 10.8177 20.8572 10.8405 20.6703C10.8632 20.4835 10.9552 20.3133 11.0966 20.1964C11.2381 20.0794 11.4178 20.0249 11.5973 20.0445C11.7768 20.0641 11.9418 20.1563 12.057 20.3013C12.7394 21.2455 13.6318 22.0023 14.6572 22.506C15.4912 22.8754 16.4133 22.9705 17.3006 22.7791C18.2419 22.6794 19.1875 22.6317 20.1336 22.6361C21.1593 22.6413 22.184 22.7012 23.2037 22.8157C24.1598 23.0471 25.1624 22.9421 26.0553 22.5168C27.0052 21.9993 27.819 21.2466 28.4256 20.3249C28.5329 20.17 28.6948 20.066 28.8756 20.0357C29.0564 20.0053 29.2413 20.0511 29.3897 20.163C29.5382 20.275 29.6379 20.4439 29.667 20.6326C29.6961 20.8213 29.6521 21.0143 29.5448 21.1692C28.8064 22.281 27.8186 23.1874 26.6675 23.8094C25.9953 24.1739 25.2474 24.3601 24.4899 24.3515Z" fill="#86BCFF"/>
<path d="M20.5623 27.1464H20.4922C20.2327 27.1458 19.984 27.038 19.8005 26.8465C19.617 26.6551 19.5137 26.3955 19.5131 26.1247C19.3658 23.5436 19.2823 20.8129 19.2895 17.9425C19.2967 15.3216 19.3781 12.819 19.5131 10.4465C19.5167 10.1765 19.6201 9.91827 19.8017 9.72588C19.8921 9.63065 19.9996 9.55503 20.1181 9.50335C20.2366 9.45167 20.3637 9.42491 20.4922 9.42471H20.5623C20.8216 9.42585 21.07 9.53386 21.2533 9.72522C21.4367 9.91658 21.5402 10.1759 21.5413 10.4465C21.5949 12.9104 21.7474 15.4807 21.7474 18.0403C21.7474 20.8097 21.598 23.4661 21.5413 26.1236V26.143C21.5244 26.4063 21.4153 26.654 21.2348 26.8388C21.0542 27.0236 20.8149 27.1327 20.5623 27.1453V27.1464Z" fill="#FF8E93"/>
<path d="M28.2749 27.9796C27.9946 27.3891 26.6775 27.7074 20.7434 27.7074C14.4569 27.7074 13.0234 27.3493 12.7184 27.9796C12.1567 29.1475 15.925 33.6037 20.3225 33.6736C24.8756 33.7425 28.8304 29.1486 28.2749 27.9796Z" fill="#86BCFF"/>
</svg>
