<svg width="26" height="31" viewBox="0 0 26 31" fill="none" xmlns="http://www.w3.org/2000/svg">
<path d="M14.4941 13.3814C15.8716 14.2118 16.8991 15.5159 17.3842 17.0494C17.8093 18.2777 17.7716 19.619 17.2781 20.8214C16.8959 21.5781 16.3436 22.236 15.6646 22.7435C14.9855 23.251 14.1981 23.5942 13.3641 23.7464C12.5464 23.8656 11.7125 23.8044 10.921 23.567C10.1294 23.3296 9.39934 22.9219 8.7821 22.3724H4.66016C5.43386 23.8836 6.63599 25.133 8.11615 25.9644C9.27432 26.6051 10.5657 26.9673 11.8881 27.0224C14.1769 27.0895 16.4102 26.3117 18.1621 24.8374C19.599 23.6482 20.5924 22.0087 20.9811 20.1844C21.2732 18.4869 21.0397 16.7407 20.3121 15.1794C19.5802 13.4253 18.3861 11.9025 16.8571 10.7734L14.4941 13.3814Z" fill="white" stroke="#2D2D2D" stroke-width="0.4" stroke-miterlimit="10"/>
<path d="M16.9856 1.17515C16.4576 1.40615 16.4106 1.92415 15.8856 2.89015C15.1823 4.04049 14.2933 5.06638 13.2547 5.92615C10.1897 9.07715 11.3606 10.9782 8.21962 14.1502C7.02662 15.3582 6.18066 15.7642 6.20766 16.6692C6.36426 17.4331 6.80304 18.11 7.43654 18.5649C8.07004 19.0197 8.85168 19.219 9.62563 19.1232C10.4096 18.8822 10.6436 18.0692 11.2086 16.9382C12.9906 13.3682 14.3687 14.0252 16.6087 10.1561C17.9147 7.90215 17.7007 7.24015 19.0877 5.67315C19.9297 4.72015 20.5346 4.37315 20.5336 3.64315C20.5306 2.21315 18.1896 0.647154 16.9856 1.17515Z" fill="#D6EA88" stroke="#2D2D2D" stroke-width="0.4" stroke-miterlimit="10"/>
<path d="M15.1705 3.17942C15.5185 3.13342 15.7495 3.25743 17.8215 4.70343C19.1675 5.64243 19.3095 5.75642 19.4025 6.01142C19.6965 6.81142 18.9916 7.55742 17.6356 9.45042C14.9356 13.2174 13.5885 15.1024 13.2725 15.6704C12.9335 16.2784 12.5356 17.0584 11.7666 17.2354C11.1366 17.3794 10.5785 17.0494 9.54353 16.4124C8.29653 15.6464 7.44356 15.1234 7.33156 14.2914C7.25756 13.7424 7.54557 13.3554 8.28957 12.3204C9.83257 10.1764 10.9745 8.53742 11.1895 8.22042C11.6565 7.54642 12.0296 6.96543 13.2196 5.24343C14.3126 3.66743 14.6235 3.25042 15.1705 3.17942Z" fill="white" stroke="#2D2D2D" stroke-width="0.4" stroke-miterlimit="10"/>
<path d="M14.6711 14.6626C16.4484 14.6626 17.8891 13.2218 17.8891 11.4446C17.8891 9.66731 16.4484 8.22656 14.6711 8.22656C12.8939 8.22656 11.4531 9.66731 11.4531 11.4446C11.4531 13.2218 12.8939 14.6626 14.6711 14.6626Z" fill="#FFABAF" stroke="#2D2D2D" stroke-width="0.4" stroke-miterlimit="10" stroke-linecap="round"/>
<path d="M1.86667 21.7952C1.77855 21.851 1.70616 21.9283 1.65635 22.02C1.60653 22.1116 1.58096 22.2144 1.58207 22.3187C1.58317 22.423 1.61089 22.5253 1.66263 22.6159C1.71437 22.7064 1.78838 22.7823 1.87766 22.8362L1.91068 22.8592C2.54868 23.3082 3.75364 23.0592 7.02164 23.0592C10.1426 23.0592 11.3267 23.2862 11.9217 22.8592C12.0092 22.8066 12.0819 22.7325 12.1328 22.6439C12.1838 22.5553 12.2112 22.4552 12.2126 22.3531C12.214 22.2509 12.1894 22.1501 12.1409 22.0602C12.0924 21.9702 12.0217 21.8942 11.9356 21.8392L11.9137 21.8232C11.2897 21.3762 10.0467 21.6352 6.86368 21.6232C3.70368 21.6202 2.47467 21.3592 1.86667 21.7952Z" fill="white" stroke="#2D2D2D" stroke-width="0.4" stroke-miterlimit="10"/>
<path d="M1.20645 28.9843C1.09004 29.1177 1.0189 29.2847 1.00327 29.4611C0.987638 29.6375 1.02834 29.8144 1.11948 29.9663C1.89448 31.1953 5.95545 30.3293 13.4724 30.4173C18.7534 30.4793 22.2095 30.9713 22.8955 29.9063C22.9822 29.7697 23.0238 29.6094 23.0144 29.4479C23.0051 29.2864 22.9453 29.1319 22.8435 29.0063C21.9435 27.8433 18.0434 28.9803 12.0224 28.9673C5.98543 28.9543 2.18145 27.7883 1.20645 28.9843Z" fill="white" stroke="#2D2D2D" stroke-width="0.4" stroke-miterlimit="10"/>
<path d="M7.07422 30.4945C7.39394 29.1421 7.983 27.868 8.80621 26.7485C9.72321 25.5125 10.9852 23.7195 12.6262 23.7995C14.0262 23.8685 14.9912 25.2495 15.9262 26.5895C16.7515 27.7731 17.3437 29.1032 17.6712 30.5085L7.07422 30.4945Z" fill="white" stroke="#2D2D2D" stroke-width="0.4" stroke-miterlimit="10"/>
<path d="M17.9269 23.552C17.9373 23.4292 17.9926 23.3145 18.0823 23.23C18.172 23.1455 18.2898 23.097 18.413 23.094C18.9593 23.09 19.5007 22.9908 20.0129 22.801C20.3239 22.6599 20.6165 22.4812 20.884 22.269L21.384 21.884C21.4842 21.8048 21.6089 21.763 21.7366 21.7658C21.8644 21.7685 21.9872 21.8156 22.0839 21.899C22.4692 22.2424 22.9016 22.529 23.368 22.75C23.397 22.7634 23.4267 22.7751 23.457 22.785C23.9607 22.9562 24.49 23.0404 25.022 23.034C25.1449 23.0348 25.2631 23.0808 25.3543 23.1633C25.4454 23.2457 25.5029 23.3588 25.5159 23.481C25.7457 24.9585 25.5932 26.4702 25.0729 27.872C24.3654 29.0967 23.2721 30.0524 21.9639 30.59C21.9018 30.6173 21.8348 30.6314 21.767 30.6314C21.6992 30.6314 21.6321 30.6173 21.57 30.59C20.2665 30.0714 19.1717 29.1352 18.457 27.928C17.9151 26.5371 17.7328 25.032 17.9269 23.552Z" fill="#C7DCFF" stroke="#2D2D2D" stroke-width="0.4" stroke-miterlimit="10"/>
<path d="M21.1168 27.6564C21.0188 27.6567 20.9241 27.6212 20.8507 27.5564C20.6497 27.3784 20.4591 27.1891 20.2797 26.9894C20.1041 26.7922 19.9398 26.5852 19.7877 26.3694C19.7266 26.2824 19.7025 26.1747 19.7208 26.07C19.7391 25.9652 19.7983 25.872 19.8852 25.8109C19.9722 25.7498 20.0799 25.7257 20.1847 25.744C20.2894 25.7623 20.3826 25.8214 20.4437 25.9084C20.5776 26.099 20.7225 26.2817 20.8777 26.4554C20.9637 26.5514 21.0537 26.6454 21.1477 26.7374C21.5247 26.4564 21.8947 26.1584 22.2477 25.8514C22.6797 25.4774 23.1007 25.0814 23.4967 24.6724C23.5707 24.5962 23.672 24.5524 23.7782 24.5508C23.8844 24.5492 23.987 24.5899 24.0632 24.6639C24.1395 24.7379 24.1832 24.8391 24.1848 24.9454C24.1864 25.0516 24.1457 25.1542 24.0717 25.2304C23.6587 25.6554 23.2217 26.0684 22.7717 26.4574C22.3217 26.8464 21.8357 27.2304 21.3477 27.5824C21.2802 27.6304 21.1996 27.6562 21.1168 27.6564Z" fill="#2D2D2D"/>
</svg>
