<svg width="27" height="28" viewBox="0 0 27 28" fill="none" xmlns="http://www.w3.org/2000/svg">
<path d="M12.6325 27.6526C9.27697 27.6526 6.12488 27.2614 3.7569 26.551C1.49594 25.8727 0.199219 24.9657 0.199219 24.0626C0.199219 23.1595 1.49594 22.2526 3.7569 21.5743C6.12488 20.8639 9.27697 20.4727 12.6325 20.4727C15.9881 20.4727 19.1402 20.8639 21.5081 21.5743C23.7691 22.2526 25.0658 23.1595 25.0658 24.0626C25.0658 24.9657 23.7691 25.8727 21.5081 26.551C19.1402 27.2614 15.9881 27.6526 12.6325 27.6526Z" fill="white"/>
<path d="M12.6333 20.6734C9.29668 20.6734 6.165 21.0617 3.81515 21.7666C1.67669 22.4082 0.400002 23.2668 0.400002 24.0634C0.400002 24.8601 1.67669 25.7187 3.81515 26.3602C6.165 27.0652 9.29668 27.4534 12.6333 27.4534C15.9699 27.4534 19.1016 27.0652 21.4515 26.3602C23.5899 25.7187 24.8666 24.8601 24.8666 24.0634C24.8666 23.2668 23.5899 22.4082 21.4515 21.7666C19.1016 21.0617 15.9699 20.6734 12.6333 20.6734ZM12.6333 20.2734C19.6105 20.2734 25.2666 21.9703 25.2666 24.0634C25.2666 26.1566 19.6105 27.8534 12.6333 27.8534C5.65612 27.8534 0 26.1566 0 24.0634C0 21.9703 5.65612 20.2734 12.6333 20.2734Z" fill="#2D2D2D"/>
<path d="M4.16796 20.4079C3.7314 19.8138 3.33677 19.19 2.98696 18.5409C2.46273 17.6457 2.06495 16.6822 1.80496 15.6779C1.42464 14.3693 1.44099 12.9773 1.85195 11.6779C2.31653 10.3551 3.20166 9.22097 4.37194 8.44893C5.45106 7.75848 6.71463 7.41251 7.99496 7.45692C9.33468 7.55453 10.6063 8.08525 11.6179 8.96895C12.7021 9.95746 13.4046 11.2953 13.603 12.7489C13.745 13.6701 13.7183 14.6094 13.5239 15.5209C13.2465 16.6106 12.7943 17.648 12.185 18.5929C11.8177 19.2546 11.4071 19.8913 10.956 20.4989C9.44896 22.5169 8.60895 23.643 7.54595 23.6329C6.51995 23.6239 5.73596 22.5519 4.16796 20.4079Z" fill="white" stroke="#2D2D2D" stroke-width="0.4"/>
<path d="M7.64534 17.6618C9.98869 17.6618 11.8883 15.7621 11.8883 13.4188C11.8883 11.0754 9.98869 9.17578 7.64534 9.17578C5.302 9.17578 3.40234 11.0754 3.40234 13.4188C3.40234 15.7621 5.302 17.6618 7.64534 17.6618Z" fill="#C7DCFF" stroke="#2D2D2D" stroke-width="0.4"/>
<path d="M7.75634 14.8017C8.57317 14.8017 9.23534 14.1396 9.23534 13.3227C9.23534 12.5059 8.57317 11.8438 7.75634 11.8438C6.93951 11.8438 6.27734 12.5059 6.27734 13.3227C6.27734 14.1396 6.93951 14.8017 7.75634 14.8017Z" fill="white" stroke="#2D2D2D" stroke-width="0.4"/>
<path d="M12.3204 19.0018C11.6921 18.1488 11.1241 17.2529 10.6204 16.3208C9.86665 15.0352 9.29454 13.6514 8.92038 12.2088C8.37409 10.329 8.39775 8.32927 8.98838 6.46284C9.65583 4.56282 10.9274 2.93375 12.6084 1.82484C14.1573 0.833833 15.9707 0.336892 17.8084 0.399853C19.7313 0.540991 21.5564 1.30328 23.0084 2.57185C24.5655 3.99157 25.5745 5.91305 25.8594 8.00087C26.0637 9.32406 26.0254 10.6734 25.7464 11.9829C25.3479 13.5477 24.6985 15.0377 23.8234 16.3948C23.2959 17.3453 22.7063 18.26 22.0584 19.1329C19.8944 22.0329 18.6874 23.6489 17.1584 23.6329C15.6994 23.6199 14.5724 22.0808 12.3204 19.0018Z" fill="white" stroke="#2D2D2D" stroke-width="0.4"/>
<path d="M17.3137 2.86719C18.5192 2.86719 19.6976 3.22465 20.7 3.89438C21.7023 4.56411 22.4835 5.51602 22.9448 6.62973C23.4061 7.74345 23.5268 8.96895 23.2916 10.1513C23.0565 11.3336 22.476 12.4196 21.6236 13.272C20.7712 14.1244 19.6851 14.7049 18.5028 14.9401C17.3205 15.1753 16.095 15.0545 14.9813 14.5932C13.8676 14.1319 12.9157 13.3507 12.2459 12.3484C11.5762 11.3461 11.2188 10.1677 11.2188 8.96219C11.2188 7.34569 11.8609 5.79541 13.0039 4.65237C14.147 3.50934 15.6973 2.86719 17.3137 2.86719V2.86719Z" fill="#FFABAF" stroke="#2D2D2D" stroke-width="0.4"/>
<path d="M17.4756 10.9472C18.6486 10.9472 19.5996 9.99627 19.5996 8.82322C19.5996 7.65017 18.6486 6.69922 17.4756 6.69922C16.3025 6.69922 15.3516 7.65017 15.3516 8.82322C15.3516 9.99627 16.3025 10.9472 17.4756 10.9472Z" fill="white" stroke="#2D2D2D" stroke-width="0.4"/>
</svg>
