<svg width="20" height="20" viewBox="0 0 20 20" fill="none" xmlns="http://www.w3.org/2000/svg">
<path d="M7.068 18.6116C4.71733 17.0012 2.68539 14.9692 1.07501 12.6186C0.394338 11.9233 0.00909594 10.9915 2.18473e-06 10.0186C-0.000524458 9.5358 0.0941665 9.05766 0.278628 8.61152C0.463089 8.16538 0.733711 7.75999 1.07501 7.41856C2.79334 5.15982 4.80926 3.14389 7.068 1.42556C7.76352 0.745341 8.69515 0.360496 9.66797 0.351566C10.1507 0.350908 10.6288 0.445423 11.0749 0.629711C11.521 0.813999 11.9265 1.08444 12.268 1.42556C14.4947 3.18023 16.5063 5.19184 18.261 7.41856C18.9411 8.11414 19.3259 9.04577 19.335 10.0186C19.3357 10.5013 19.2413 10.9794 19.057 11.4255C18.8727 11.8717 18.6022 12.2771 18.261 12.6186C16.5081 14.8469 14.4963 16.8587 12.268 18.6116C11.8243 19.0475 11.2804 19.3679 10.684 19.5446C10.3523 19.6397 10.009 19.6875 9.664 19.6866C9.23063 19.6758 8.8022 19.5916 8.39697 19.4376C7.90439 19.2515 7.45295 18.9709 7.068 18.6116Z" fill="#E1ECFE"/>
</svg>
