<svg width="10" height="7" viewBox="0 0 10 7" fill="none" xmlns="http://www.w3.org/2000/svg">
<path d="M2.8876 6.51858C2.96877 6.66027 3.08251 6.77847 3.21836 6.86258C3.35421 6.94669 3.50789 6.99397 3.66561 7.00018C3.97879 6.97671 4.27244 6.83217 4.48946 6.59465L9.64927 1.93014C9.75084 1.84011 9.83413 1.72964 9.89403 1.60523C9.95393 1.48081 9.98927 1.34498 9.99798 1.20596C10.0067 1.06694 9.98857 0.927514 9.9447 0.795982C9.90083 0.664451 9.83207 0.5436 9.7426 0.440461C9.57317 0.272711 9.34884 0.179199 9.11563 0.179199C8.88243 0.179199 8.65809 0.272711 8.48867 0.440461C7.81661 1.03635 3.86327 4.61832 3.86327 4.61832L2.65992 2.82727C2.60102 2.70467 2.518 2.59654 2.41622 2.51004C2.31444 2.42354 2.19626 2.36063 2.06954 2.32546C1.94281 2.2903 1.81041 2.2837 1.68106 2.30606C1.55172 2.32843 1.42832 2.37933 1.31913 2.45528C1.20994 2.53124 1.11742 2.63058 1.04763 2.74675C0.977842 2.86292 0.932447 2.99323 0.914345 3.12915C0.896244 3.26507 0.905848 3.40346 0.942624 3.53519C0.979401 3.66691 1.04247 3.78901 1.12764 3.89333L2.8876 6.51858Z" fill="white"/>
</svg>
