<svg width="16" height="16" viewBox="0 0 16 16" fill="none" xmlns="http://www.w3.org/2000/svg">
<path d="M8.5 5.86675C8.5 5.59061 8.27614 5.36675 8 5.36675C7.72386 5.36675 7.5 5.59061 7.5 5.86675H8.5ZM8 8.00008H7.5C7.5 8.13269 7.55268 8.25987 7.64645 8.35364L8 8.00008ZM8.71311 9.4203C8.90838 9.61556 9.22496 9.61556 9.42022 9.4203C9.61548 9.22504 9.61548 8.90846 9.42022 8.71319L8.71311 9.4203ZM12.8333 8.00008C12.8333 10.6695 10.6694 12.8334 8 12.8334V13.8334C11.2217 13.8334 13.8333 11.2217 13.8333 8.00008H12.8333ZM8 12.8334C5.33063 12.8334 3.16667 10.6695 3.16667 8.00008H2.16667C2.16667 11.2217 4.77834 13.8334 8 13.8334V12.8334ZM3.16667 8.00008C3.16667 5.33071 5.33063 3.16675 8 3.16675V2.16675C4.77834 2.16675 2.16667 4.77842 2.16667 8.00008H3.16667ZM8 3.16675C10.6694 3.16675 12.8333 5.33071 12.8333 8.00008H13.8333C13.8333 4.77842 11.2217 2.16675 8 2.16675V3.16675ZM7.5 5.86675V8.00008H8.5V5.86675H7.5ZM7.64645 8.35364L8.71311 9.4203L9.42022 8.71319L8.35355 7.64653L7.64645 8.35364Z" fill="#47566A"/>
</svg>
