<svg width="11" height="13" viewBox="0 0 11 13" fill="none" xmlns="http://www.w3.org/2000/svg">
<rect y="0.5" width="10.9087" height="12" rx="2.18178" fill="#1778F2"/>
<path d="M4.28796 4.71473C4.3136 4.77113 4.32788 4.83203 4.32998 4.89395C4.33208 4.95588 4.32195 5.01761 4.30017 5.07562C4.2784 5.13362 4.2454 5.18677 4.20308 5.23201C4.16075 5.27726 4.10992 5.31372 4.05349 5.33931L4.03699 5.34642C3.81248 5.38996 3.62098 5.08264 3.61017 5.06443C3.58342 5.02033 3.43205 4.77078 3.55326 4.60148C3.6594 4.4518 3.89472 4.48225 3.92943 4.48595C4.00267 4.49425 4.07305 4.51917 4.13519 4.55882C4.19732 4.59847 4.24957 4.6518 4.28796 4.71473Z" fill="white" stroke="#2D2D2D" stroke-width="0.113818" stroke-miterlimit="10"/>
<path d="M6.7468 4.70738C6.721 4.76385 6.70659 4.82486 6.7044 4.8869C6.7022 4.94895 6.71228 5.01082 6.73403 5.06897C6.75578 5.12712 6.78879 5.1804 6.83116 5.22578C6.87354 5.27115 6.92445 5.30772 6.98098 5.33339L6.99777 5.3405C7.22227 5.38404 7.41348 5.07644 7.42458 5.05852C7.45133 5.01441 7.60271 4.76486 7.48149 4.59555C7.37507 4.44617 7.14004 4.47633 7.10533 4.48003C7.03217 4.48803 6.96182 4.51267 6.89967 4.55208C6.83752 4.59149 6.78522 4.64462 6.7468 4.70738V4.70738Z" fill="white" stroke="#2D2D2D" stroke-width="0.113818" stroke-miterlimit="10"/>
<path d="M8.71639 9.0655C8.56416 10.0045 6.76584 10.4456 5.60149 10.4763C4.20438 10.513 2.32924 9.9954 2.18981 9.0655C2.11441 8.56128 2.57452 8.09803 3.00275 7.66552C3.56987 7.01236 4.3732 6.61122 5.23605 6.55033C6.09891 6.48945 6.95061 6.7738 7.60382 7.34085C7.6761 7.40383 7.74553 7.47023 7.81211 7.54004C8.21047 7.90881 8.81371 8.46795 8.71639 9.0655Z" fill="#DCEAFF" stroke="#2D2D2D" stroke-width="0.113818" stroke-miterlimit="9.998" stroke-linecap="round"/>
<path d="M3.51363 7.17047C3.47156 7.3513 3.46031 7.53793 3.48034 7.7225C3.51184 8.00242 3.613 8.26999 3.77455 8.50074" stroke="#2D2D2D" stroke-width="0.113818" stroke-miterlimit="10" stroke-linecap="round"/>
<path d="M7.16803 7.74801C7.17657 7.65269 7.18197 7.5511 7.18112 7.44098C7.18 7.28595 7.16745 7.13121 7.14355 6.97803" fill="#FFA7AC"/>
<path d="M7.16803 7.74801C7.17657 7.65269 7.18197 7.5511 7.18112 7.44098C7.18 7.28595 7.16745 7.13121 7.14355 6.97803" stroke="#2D2D2D" stroke-width="0.113818" stroke-miterlimit="10" stroke-linecap="round"/>
<path d="M4.09627 8.55351C4.09627 8.62533 4.07498 8.69552 4.03508 8.75523C3.99519 8.81494 3.93848 8.86148 3.87214 8.88896C3.80579 8.91644 3.73279 8.92363 3.66236 8.90962C3.59193 8.89561 3.52724 8.86103 3.47646 8.81025C3.42568 8.75947 3.3911 8.69478 3.37709 8.62435C3.36308 8.55392 3.37028 8.48091 3.39776 8.41457C3.42524 8.34822 3.47177 8.29151 3.53148 8.25162C3.59119 8.21172 3.66138 8.19043 3.73319 8.19043C3.82949 8.19043 3.92184 8.22868 3.98993 8.29677C4.05802 8.36486 4.09627 8.45722 4.09627 8.55351V8.55351Z" fill="white" stroke="#2D2D2D" stroke-width="0.113818" stroke-miterlimit="9.998" stroke-linecap="round"/>
<path d="M5.50463 6.85869C6.35449 6.85869 7.04344 5.89455 7.04344 4.70522C7.04344 3.5159 6.35449 2.55176 5.50463 2.55176C4.65477 2.55176 3.96582 3.5159 3.96582 4.70522C3.96582 5.89455 4.65477 6.85869 5.50463 6.85869Z" fill="white" stroke="#2D2D2D" stroke-width="0.113818" stroke-miterlimit="10"/>
<path d="M7.52613 9.67622C7.71222 9.76158 7.83913 9.76955 7.91482 9.71321C8.24034 9.47021 7.83657 7.8386 7.14655 7.75466C6.47901 7.673 5.68485 9.06813 5.95431 9.45398C6.00174 9.50416 6.06036 9.54243 6.12538 9.56567C6.1904 9.58891 6.25999 9.59647 6.32849 9.58772" stroke="#2D2D2D" stroke-width="0.113818" stroke-miterlimit="10" stroke-linecap="round"/>
<path d="M6.4192 9.84159C6.54555 9.84159 6.64798 9.73916 6.64798 9.61281C6.64798 9.48646 6.54555 9.38403 6.4192 9.38403C6.29285 9.38403 6.19043 9.48646 6.19043 9.61281C6.19043 9.73916 6.29285 9.84159 6.4192 9.84159Z" fill="white" stroke="#2D2D2D" stroke-width="0.113818" stroke-miterlimit="9.998" stroke-linecap="round"/>
<path d="M7.42702 9.89945C7.55336 9.89945 7.65579 9.79702 7.65579 9.67067C7.65579 9.54432 7.55336 9.44189 7.42702 9.44189C7.30067 9.44189 7.19824 9.54432 7.19824 9.67067C7.19824 9.79702 7.30067 9.89945 7.42702 9.89945Z" fill="white" stroke="#2D2D2D" stroke-width="0.113818" stroke-miterlimit="9.998" stroke-linecap="round"/>
<path d="M3.94063 4.49304C4.32508 4.40159 4.69752 4.26551 5.05036 4.08756C5.73582 3.73984 6.09178 3.35598 6.40962 3.49939C6.51348 3.54577 6.57522 3.64594 6.699 3.84654C6.8621 4.11081 6.97838 4.40123 7.04273 4.70503C7.18713 4.34599 7.21488 3.95062 7.12203 3.57493C7.02918 3.19925 6.82045 2.86232 6.52543 2.61189C6.33267 2.47282 6.11313 2.3753 5.88072 2.32548C5.64831 2.27567 5.40809 2.27465 5.17527 2.3225C4.94189 2.38 4.72039 2.47795 4.52082 2.61189C4.36501 2.70104 4.22744 2.81882 4.11534 2.95904C4.00344 3.10882 3.92468 3.2807 3.88429 3.46326C3.80295 3.80473 3.82252 4.16248 3.94063 4.49304V4.49304Z" fill="#474747" stroke="#2D2D2D" stroke-width="0.113818" stroke-miterlimit="10"/>
</svg>
