<svg width="8" height="11" viewBox="0 0 8 11" fill="none" xmlns="http://www.w3.org/2000/svg">
<path d="M6.32209 5.07865C6.30828 4.99572 6.27221 4.9181 6.21772 4.85408C6.16323 4.79007 6.09237 4.74205 6.01272 4.71517C5.28301 4.46808 4.50853 4.38158 3.74229 4.4616C2.97642 4.41031 2.20755 4.49618 1.47187 4.71517C1.38876 4.74454 1.31531 4.79618 1.25956 4.86445C1.20381 4.93273 1.16789 5.01502 1.15573 5.10232C1.01001 5.82522 0.956896 6.56372 0.997668 7.30004C0.965989 8.01531 1.00534 8.73196 1.11516 9.43945C1.12414 9.53649 1.1601 9.62907 1.21896 9.70675C1.27781 9.78442 1.35722 9.84409 1.44821 9.879C1.90465 10.0091 2.37673 10.0763 2.85136 10.0785V8.98891C2.84582 8.66814 2.85768 8.34732 2.88687 8.02783C2.88791 7.96008 2.91364 7.89503 2.95924 7.84491C3.00484 7.7948 3.06718 7.76305 3.13454 7.75565C3.33351 7.71272 3.53748 7.69765 3.7406 7.71085C3.94456 7.69858 4.14924 7.71364 4.3492 7.75565C4.41699 7.76197 4.47997 7.7934 4.52579 7.84375C4.57161 7.89411 4.59695 7.95975 4.59687 8.02783C4.59687 8.02783 4.63153 8.33805 4.63153 8.98215C4.63153 9.62626 4.60617 10.081 4.60617 10.081C5.06525 10.0716 5.52214 10.015 5.96961 9.91197C6.06352 9.88528 6.14843 9.8336 6.21527 9.76244C6.28211 9.69128 6.32837 9.60332 6.34913 9.50793C6.49662 8.78269 6.54244 8.04045 6.48523 7.30258C6.50924 6.5576 6.45455 5.81216 6.32209 5.07865Z" fill="#FF7265"/>
<path d="M7.34837 4.86118C7.34837 4.86118 6.9477 4.34978 5.97901 3.12243C5.42763 2.40276 4.83255 1.71763 4.19716 1.07093C4.08047 0.972806 3.9329 0.919006 3.78044 0.919006C3.62797 0.919006 3.48041 0.972806 3.36372 1.07093C2.69521 1.71313 2.06948 2.39843 1.49057 3.12243C0.674876 4.17734 0.093323 4.95754 0.093323 4.95754C0.0448764 5.02429 0.0140847 5.1022 0.00381111 5.18404C-0.00646249 5.26588 0.00411629 5.34899 0.0345598 5.42564C0.0650034 5.5023 0.114325 5.57003 0.177946 5.62252C0.241568 5.67501 0.317432 5.71057 0.398476 5.7259C0.499064 5.74365 2.25809 5.92116 3.70605 5.91947C5.15402 5.91778 6.91812 5.73857 7.04322 5.7259C7.13522 5.7099 7.2213 5.66969 7.2926 5.6094C7.36391 5.54911 7.41787 5.47092 7.44894 5.38286C7.48001 5.29481 7.48707 5.20007 7.4694 5.10838C7.45172 5.01669 7.40995 4.93137 7.34837 4.86118Z" fill="#FF7265"/>
</svg>
