<svg width="9" height="11" viewBox="0 0 9 11" fill="none" xmlns="http://www.w3.org/2000/svg">
<path d="M2.39847 1.46973C2.44047 1.88273 2.48945 2.48075 2.49845 3.20575C2.55082 3.82042 2.51719 4.43937 2.39847 5.04474C2.14064 5.73081 1.76466 6.3664 1.28751 6.92273C0.845664 7.58827 0.450999 8.28401 0.10648 9.00476C0.0488287 9.10369 0.0135752 9.21403 0.00320844 9.32806C-0.0071583 9.4421 0.00767752 9.55703 0.0465434 9.66473C0.0976062 9.78347 0.176577 9.8881 0.27689 9.9696C0.377203 10.0511 0.495797 10.1071 0.622471 10.1328C1.08747 10.1708 1.74446 10.2207 2.53946 10.2657C2.62946 10.2707 3.33049 10.3097 4.26749 10.3267C4.96094 10.332 5.65318 10.267 6.33353 10.1328C6.46995 10.1242 6.60312 10.0877 6.72489 10.0256C6.84666 9.96348 6.95446 9.87709 7.04154 9.77173C7.09976 9.64675 7.1309 9.51091 7.13297 9.37305C7.13504 9.23518 7.10795 9.09841 7.0535 8.97174C6.5845 7.51874 5.19346 6.69572 4.73746 5.07172C4.60315 4.51003 4.54438 3.93301 4.56253 3.35577C4.55145 2.68832 4.60633 2.02139 4.72648 1.36475L2.39847 1.46973Z" fill="#1778F2"/>
<path d="M1.95065 0.776599C1.90145 0.865109 1.87671 0.965158 1.87899 1.06639C1.88128 1.16763 1.91045 1.26639 1.96358 1.35259C2.06358 1.51359 2.26363 1.61964 3.51363 1.61864C4.76363 1.61764 4.95264 1.51259 5.04964 1.35259C5.09896 1.26697 5.12484 1.1699 5.12484 1.07109C5.12484 0.972287 5.09896 0.87522 5.04964 0.7896C4.90064 0.5546 4.59363 0.579587 3.46163 0.576587C2.38963 0.571587 2.08965 0.547599 1.95065 0.776599Z" fill="#1778F2"/>
<path d="M0.869962 9.26081C1.06996 9.74281 2.00695 9.74882 3.80795 9.73982C6.07895 9.72782 6.30797 9.42782 6.37997 9.27382C6.51497 8.97382 6.32395 8.62283 5.97995 7.99183C5.74624 7.42178 5.32222 6.95038 4.78 6.65785C4.42017 6.51685 4.0336 6.45741 3.64804 6.48384C3.29448 6.46327 2.94043 6.51569 2.608 6.63783C2.03853 6.93136 1.58781 7.41245 1.332 7.99983C0.949998 8.65783 0.756962 8.99081 0.869962 9.26081Z" fill="#1778F2"/>
<path d="M4.27397 8.08488L5.96497 10.3219C5.98959 10.3544 6.0214 10.3808 6.05793 10.3989C6.09445 10.4171 6.13468 10.4265 6.17547 10.4265C6.21626 10.4265 6.25649 10.4171 6.29301 10.3989C6.32954 10.3808 6.36135 10.3544 6.38597 10.3219L8.07697 8.08488C8.345 7.73121 8.509 7.30976 8.55051 6.86795C8.59203 6.42615 8.50941 5.98152 8.31195 5.58412C8.1145 5.18672 7.81004 4.85232 7.43286 4.61855C7.05567 4.38478 6.62072 4.26093 6.17697 4.26093C5.73322 4.26093 5.29827 4.38478 4.92108 4.61855C4.5439 4.85232 4.23944 5.18672 4.04199 5.58412C3.84453 5.98152 3.76191 6.42615 3.80343 6.86795C3.84494 7.30976 4.00894 7.73121 4.27697 8.08488H4.27397Z" fill="#4285F4" stroke="#EEF4FF" stroke-width="0.7"/>
<path d="M6.12941 7.4128C6.71648 7.4128 7.19241 6.93688 7.19241 6.3498C7.19241 5.76273 6.71648 5.2868 6.12941 5.2868C5.54233 5.2868 5.06641 5.76273 5.06641 6.3498C5.06641 6.93688 5.54233 7.4128 6.12941 7.4128Z" fill="#EEF4FF"/>
</svg>
