<svg width="16" height="16" viewBox="0 0 16 16" fill="none" xmlns="http://www.w3.org/2000/svg">
<path fill-rule="evenodd" clip-rule="evenodd" d="M12.0381 10.6676C11.7263 11.2449 11.3749 11.8 10.9864 12.3288C9.59135 14.2362 8.89304 15.19 7.981 15.2C7.03501 15.2092 6.28655 14.2069 4.94627 12.4106C4.54459 11.8695 4.17908 11.3024 3.85213 10.7131C3.31017 9.87193 2.90761 8.94878 2.65999 7.97928C2.48684 7.1673 2.46331 6.33054 2.59055 5.51012C2.74424 4.26734 3.32679 3.11716 4.23773 2.25791C5.14867 1.39867 6.33091 0.884233 7.58054 0.80333C8.71982 0.76441 9.84406 1.0725 10.8043 1.68681C11.8459 2.37383 12.6337 3.38311 13.0474 4.56028C13.4136 5.71691 13.4284 6.95621 13.0898 8.12124C12.8582 9.01441 12.5043 9.8713 12.0381 10.6676ZM4.11678 6.10657C4.11678 8.19214 5.80747 9.88282 7.89303 9.88282C9.9786 9.88282 11.6693 8.19214 11.6693 6.10657C11.6693 4.02101 9.9786 2.33032 7.89303 2.33032C5.80747 2.33032 4.11678 4.02101 4.11678 6.10657Z" fill="#2E3742"/>
<path d="M7.7928 7.33732C7.06579 7.33732 6.47643 6.74796 6.47643 6.02095C6.47643 5.29395 7.06579 4.70459 7.7928 4.70459C8.51981 4.70459 9.10916 5.29395 9.10916 6.02095C9.10916 6.74796 8.51981 7.33732 7.7928 7.33732Z" fill="#2E3742"/>
</svg>
