<svg width="7" height="9" viewBox="0 0 7 9" fill="none" xmlns="http://www.w3.org/2000/svg">
<path d="M1.50596 7.10131C1.28425 6.80168 1.08376 6.48692 0.905949 6.15933C0.640207 5.70802 0.438281 5.22207 0.305943 4.71533C0.114137 4.0551 0.122476 3.3528 0.32993 2.69732C0.564204 2.03002 1.01063 1.45785 1.60093 1.06832C2.14515 0.72029 2.78235 0.545915 3.42795 0.568325C4.10359 0.617769 4.74482 0.885566 5.25495 1.33132C5.8014 1.83021 6.15532 2.50512 6.25495 3.23831C6.32676 3.70353 6.3132 4.17797 6.21494 4.63833C6.07503 5.18772 5.8471 5.7108 5.53995 6.18731C5.35463 6.52092 5.14749 6.84195 4.91993 7.14831C4.15993 8.16631 3.73596 8.73433 3.19996 8.72933C2.69296 8.72334 2.29696 8.18231 1.50596 7.10131Z" fill="#969696"/>
<path d="M3.26209 5.71559C4.44454 5.71559 5.40309 4.75704 5.40309 3.57459C5.40309 2.39215 4.44454 1.43359 3.26209 1.43359C2.07965 1.43359 1.12109 2.39215 1.12109 3.57459C1.12109 4.75704 2.07965 5.71559 3.26209 5.71559Z" fill="white"/>
<path d="M3.31631 2.78125C3.46386 2.78125 3.60809 2.825 3.73077 2.90697C3.85345 2.98895 3.94906 3.10545 4.00553 3.24177C4.06199 3.37808 4.07676 3.52808 4.04798 3.67279C4.01919 3.8175 3.94814 3.95042 3.84381 4.05475C3.73948 4.15908 3.60656 4.23013 3.46185 4.25892C3.31714 4.2877 3.16714 4.27293 3.03083 4.21646C2.89452 4.16 2.77801 4.06438 2.69604 3.94171C2.61406 3.81903 2.57031 3.67479 2.57031 3.52725C2.57031 3.3294 2.64891 3.13965 2.78881 2.99975C2.92871 2.85985 3.11846 2.78125 3.31631 2.78125V2.78125Z" fill="#969696"/>
</svg>
