<svg width="16" height="16" viewBox="0 0 16 16" fill="none" xmlns="http://www.w3.org/2000/svg">
<path d="M8 13.3333L7.79693 13.7902C7.92622 13.8477 8.07379 13.8477 8.20307 13.7902L8 13.3333ZM9.36667 7.46663C9.36667 8.22142 8.75479 8.83329 8 8.83329V9.83329C9.30708 9.83329 10.3667 8.7737 10.3667 7.46663H9.36667ZM8 8.83329C7.24521 8.83329 6.63333 8.22142 6.63333 7.46663H5.63333C5.63333 8.7737 6.69293 9.83329 8 9.83329V8.83329ZM6.63333 7.46663C6.63333 6.71184 7.24521 6.09996 8 6.09996V5.09996C6.69293 5.09996 5.63333 6.15955 5.63333 7.46663H6.63333ZM8 6.09996C8.75479 6.09996 9.36667 6.71184 9.36667 7.46663H10.3667C10.3667 6.15955 9.30708 5.09996 8 5.09996V6.09996ZM12.3 7.46663C12.3 9.10946 11.2405 10.4487 10.0799 11.4158C9.50802 11.8924 8.93359 12.2597 8.50107 12.508C8.28537 12.6318 8.10641 12.7252 7.98264 12.7871C7.9208 12.818 7.87284 12.841 7.84109 12.856C7.82522 12.8634 7.81341 12.8689 7.80595 12.8723C7.80222 12.874 7.79958 12.8752 7.79806 12.8759C7.79731 12.8762 7.79683 12.8764 7.79664 12.8765C7.79655 12.8766 7.79652 12.8766 7.79657 12.8765C7.79659 12.8765 7.79669 12.8765 7.7967 12.8765C7.79681 12.8764 7.79693 12.8764 8 13.3333C8.20307 13.7902 8.20323 13.7901 8.20342 13.79C8.2035 13.79 8.2037 13.7899 8.20387 13.7898C8.20421 13.7897 8.20463 13.7895 8.20511 13.7893C8.20608 13.7889 8.20735 13.7883 8.2089 13.7876C8.212 13.7862 8.21624 13.7843 8.22159 13.7818C8.2323 13.7769 8.24744 13.7699 8.26673 13.7609C8.30529 13.7427 8.36046 13.7162 8.42986 13.6815C8.56859 13.6122 8.76463 13.5098 8.99894 13.3753C9.46641 13.1069 10.092 12.7075 10.7201 12.1841C11.9595 11.1512 13.3 9.55713 13.3 7.46663H12.3ZM8 13.3333C8.20307 12.8764 8.2032 12.8764 8.20331 12.8765C8.20332 12.8765 8.20341 12.8765 8.20343 12.8765C8.20348 12.8766 8.20346 12.8766 8.20336 12.8765C8.20317 12.8764 8.2027 12.8762 8.20194 12.8759C8.20042 12.8752 8.19778 12.874 8.19405 12.8723C8.1866 12.8689 8.17478 12.8634 8.15891 12.856C8.12716 12.841 8.07921 12.818 8.01736 12.7871C7.89359 12.7252 7.71463 12.6318 7.49894 12.508C7.06641 12.2597 6.49198 11.8924 5.92009 11.4158C4.75949 10.4487 3.7 9.10946 3.7 7.46663H2.7C2.7 9.55713 4.04051 11.1512 5.27991 12.1841C5.90802 12.7075 6.53359 13.1069 7.00107 13.3753C7.23537 13.5098 7.43141 13.6122 7.57014 13.6815C7.63955 13.7162 7.69471 13.7427 7.73328 13.7609C7.75256 13.7699 7.7677 13.7769 7.77841 13.7818C7.78376 13.7843 7.78801 13.7862 7.79111 13.7876C7.79266 13.7883 7.79392 13.7889 7.79489 13.7893C7.79538 13.7895 7.79579 13.7897 7.79613 13.7898C7.7963 13.7899 7.7965 13.79 7.79659 13.79C7.79677 13.7901 7.79693 13.7902 8 13.3333ZM3.7 7.46663C3.7 5.0918 5.62518 3.16663 8 3.16663V2.16663C5.07289 2.16663 2.7 4.53952 2.7 7.46663H3.7ZM8 3.16663C10.3748 3.16663 12.3 5.0918 12.3 7.46663H13.3C13.3 4.53952 10.9271 2.16663 8 2.16663V3.16663Z" fill="#4D5C6F"/>
</svg>
