<svg width="11" height="13" viewBox="0 0 11 13" fill="none" xmlns="http://www.w3.org/2000/svg">
<rect y="0.5" width="10.9091" height="12" rx="2.18182" fill="#1778F2"/>
<path d="M6.53334 3.97407C6.40283 3.97137 6.27257 3.96129 6.1432 3.94389C5.87873 3.9118 5.61264 3.89473 5.34623 3.89281C5.10064 3.89188 4.85521 3.90548 4.61124 3.93358C4.29488 3.99826 3.96597 3.95531 3.67684 3.81156C3.32892 3.62376 3.03345 3.35205 2.81725 3.02104C2.7869 2.97416 2.77598 2.91732 2.78678 2.86253C2.79758 2.80774 2.82926 2.75927 2.87513 2.72741C2.92099 2.69556 2.97745 2.68277 3.03256 2.69179C3.08768 2.7008 3.13713 2.7309 3.17046 2.77571C3.34645 3.04791 3.58732 3.27212 3.87142 3.42817C4.08771 3.53398 4.33413 3.56102 4.56821 3.50461C4.76344 3.48566 5.01261 3.46477 5.34687 3.46188C5.62865 3.46351 5.9101 3.48165 6.18976 3.51617C6.4418 3.5833 6.70987 3.55328 6.94081 3.43205C7.20486 3.27207 7.42499 3.04893 7.58141 2.78276C7.61194 2.73452 7.66038 2.70039 7.71608 2.68787C7.77178 2.67534 7.83018 2.68544 7.87842 2.71597C7.92667 2.7465 7.96081 2.79495 7.97333 2.85065C7.98586 2.90635 7.97574 2.96476 7.94521 3.013C7.75083 3.33919 7.47853 3.61204 7.15274 3.80709C6.96549 3.91849 6.75121 3.97626 6.53334 3.97407Z" fill="#DCEAFF"/>
<path d="M6.95166 4.92554C6.79464 4.92554 6.63056 4.91171 6.43951 4.8963C6.164 4.87318 5.82075 4.84492 5.35066 4.8446C4.90304 4.84299 4.59864 4.8671 4.34658 4.8854C3.94601 4.94862 3.53596 4.90984 3.15434 4.77267C2.72135 4.60534 2.33311 4.33977 2.02021 3.99689C1.98129 3.95516 1.96055 3.89967 1.96253 3.84265C1.96452 3.78562 1.98908 3.73172 2.03081 3.6928C2.07254 3.65388 2.12802 3.63315 2.18504 3.63514C2.24207 3.63713 2.29597 3.66169 2.33489 3.70342C2.60311 3.99742 2.93549 4.22564 3.30622 4.37035C3.62945 4.48461 3.97658 4.51412 4.31447 4.45608C4.57456 4.43713 4.92263 4.4153 5.3513 4.41402C5.83873 4.41402 6.1913 4.44388 6.47515 4.46764C6.83921 4.53744 7.2155 4.50473 7.56207 4.37322C7.90558 4.22522 8.20925 3.99814 8.44831 3.71048C8.48574 3.66835 8.53822 3.64259 8.59444 3.63875C8.65067 3.6349 8.70616 3.6533 8.74898 3.68994C8.7918 3.72658 8.81854 3.77855 8.82344 3.83469C8.82834 3.89083 8.81101 3.94664 8.77519 3.99015C8.49261 4.32935 8.13365 4.59676 7.72776 4.77043C7.48284 4.87613 7.21839 4.92899 6.95166 4.92554Z" fill="#DCEAFF"/>
<path d="M6.95166 6.00784C6.79464 6.00784 6.63056 5.99405 6.43951 5.97864C6.164 5.95552 5.82075 5.92758 5.35066 5.92694C4.89598 5.92694 4.59864 5.9494 4.34658 5.9677C3.94603 6.03077 3.53605 5.99213 3.15434 5.85533C2.72138 5.68764 2.33318 5.42189 2.02021 5.07892C1.98129 5.03719 1.96055 4.98171 1.96253 4.92468C1.96452 4.86765 1.98908 4.81375 2.03081 4.77483C2.07254 4.73591 2.12802 4.71518 2.18504 4.71717C2.24207 4.71916 2.29597 4.74368 2.33489 4.78541C2.603 5.07984 2.93569 5.30812 3.30686 5.45235C3.63004 5.56687 3.97723 5.59638 4.31511 5.53807C4.57456 5.51912 4.90722 5.49826 5.35162 5.49601C5.83969 5.49601 6.19226 5.52587 6.47547 5.54963C6.83952 5.61963 7.21586 5.58696 7.56239 5.45525C7.90581 5.3071 8.20944 5.08004 8.44863 4.79251C8.48606 4.75038 8.53854 4.72462 8.59476 4.72078C8.65099 4.71693 8.70648 4.73529 8.7493 4.77193C8.79212 4.80857 8.81886 4.86054 8.82376 4.91668C8.82866 4.97283 8.81133 5.02867 8.77551 5.07218C8.49282 5.41119 8.13389 5.67845 7.72808 5.85211C7.48313 5.95814 7.21855 6.0112 6.95166 6.00784Z" fill="#DCEAFF"/>
<path d="M6.64269 7.27762C6.50623 7.27762 6.36366 7.2638 6.20022 7.24775C5.89592 7.21515 5.59016 7.19799 5.28412 7.19636C4.9171 7.19636 4.65284 7.21886 4.43995 7.23717C4.09034 7.30122 3.7296 7.26045 3.40312 7.11997C3.02045 6.94123 2.68708 6.67199 2.43179 6.33552C2.39785 6.29069 2.38281 6.23433 2.3899 6.17854C2.39699 6.12275 2.42564 6.07196 2.46971 6.03704C2.51379 6.00212 2.56979 5.98584 2.62571 5.99169C2.68164 5.99754 2.73306 6.02506 2.76895 6.06836C2.98156 6.35028 3.25961 6.57622 3.57908 6.72663C3.83895 6.83689 4.12625 6.86531 4.4027 6.80816C4.69598 6.77839 4.99062 6.76416 5.2854 6.76547C5.60496 6.76701 5.92423 6.7849 6.24196 6.81909C6.53986 6.88818 6.85224 6.85681 7.13044 6.72984C7.42639 6.57532 7.67996 6.35061 7.86897 6.07541C7.9024 6.02917 7.95283 5.99813 8.00916 5.98906C8.06549 5.98 8.12312 5.99366 8.16936 6.02708C8.2156 6.06051 8.24667 6.11096 8.25574 6.16729C8.2648 6.22362 8.25111 6.28125 8.21769 6.32749C7.98761 6.65943 7.67983 6.93005 7.32118 7.11577C7.11173 7.2246 6.87871 7.28019 6.64269 7.27762Z" fill="#DCEAFF"/>
<path d="M5.41769 8.11067H5.39585C5.315 8.1105 5.23751 8.07831 5.18034 8.02114C5.12317 7.96397 5.09098 7.88649 5.09081 7.80564C5.04489 7.035 5.01888 6.21972 5.02113 5.3627C5.02338 4.58018 5.04874 3.83299 5.09081 3.12465C5.09193 3.04403 5.12414 2.96694 5.18072 2.9095C5.20888 2.88107 5.24238 2.85849 5.2793 2.84306C5.31623 2.82763 5.35584 2.81964 5.39585 2.81958H5.41769C5.49849 2.81992 5.57588 2.85217 5.63301 2.9093C5.69015 2.96644 5.7224 3.04385 5.72273 3.12465C5.73943 3.86029 5.78695 4.62769 5.78695 5.3919C5.78695 6.21874 5.74039 7.01185 5.72273 7.80529V7.81109C5.71747 7.88971 5.68347 7.96365 5.62722 8.01883C5.57097 8.07401 5.4964 8.10659 5.41769 8.11035V8.11067Z" fill="#DCEAFF"/>
<path d="M7.82112 8.35953C7.73378 8.18324 7.32341 8.27827 5.47452 8.27827C3.51581 8.27827 3.06917 8.17136 2.97412 8.35953C2.79912 8.70824 3.97323 10.0387 5.34336 10.0596C6.76198 10.0801 7.99419 8.70856 7.82112 8.35953Z" fill="#DCEAFF"/>
</svg>
