<svg width="9" height="9" viewBox="0 0 9 9" fill="none" xmlns="http://www.w3.org/2000/svg">
<path d="M4.53564 0.748779L5.17065 2.70078C5.20175 2.79698 5.26251 2.88083 5.34427 2.94031C5.42602 2.99978 5.52454 3.0318 5.62564 3.03177H7.67865C7.77962 3.03203 7.87794 3.06421 7.95953 3.12369C8.04113 3.18316 8.10183 3.26687 8.133 3.36292C8.16416 3.45896 8.16419 3.56239 8.13306 3.65845C8.10192 3.7545 8.04123 3.83827 7.95966 3.89777L6.29865 5.10477C6.21704 5.16429 6.1563 5.24806 6.12506 5.34412C6.09382 5.44017 6.09366 5.54363 6.12463 5.63977L6.75964 7.59177C6.7907 7.68792 6.79054 7.79145 6.75922 7.88751C6.72789 7.98358 6.66698 8.06726 6.58521 8.12662C6.50343 8.18598 6.405 8.21796 6.30396 8.21799C6.20291 8.21801 6.10445 8.18609 6.02264 8.12677L4.36163 6.91977C4.27981 6.86033 4.18127 6.82831 4.08014 6.82831C3.97901 6.82831 3.88047 6.86033 3.79865 6.91977L2.13763 8.12677C2.05583 8.18609 1.95737 8.21801 1.85632 8.21799C1.75528 8.21796 1.65684 8.18598 1.57507 8.12662C1.4933 8.06726 1.43239 7.98358 1.40106 7.88751C1.36973 7.79145 1.36958 7.68792 1.40063 7.59177L2.03564 5.63977C2.06662 5.54363 2.06649 5.44017 2.03525 5.34412C2.00401 5.24806 1.94324 5.16429 1.86163 5.10477L0.200653 3.89777C0.119074 3.83827 0.0583854 3.7545 0.0272524 3.65845C-0.00388068 3.56239 -0.00388106 3.45896 0.0272829 3.36292C0.0584468 3.26687 0.119177 3.18316 0.200775 3.12369C0.282374 3.06421 0.380687 3.03203 0.481659 3.03177H2.53464C2.63574 3.0318 2.73425 2.99978 2.81601 2.94031C2.89776 2.88083 2.95856 2.79698 2.98965 2.70078L3.62463 0.748779C3.65592 0.652617 3.71685 0.568823 3.79868 0.509399C3.8805 0.449976 3.97902 0.417969 4.08014 0.417969C4.18126 0.417969 4.27981 0.449976 4.36163 0.509399C4.44346 0.568823 4.50436 0.652617 4.53564 0.748779Z" fill="#F7BD1B"/>
</svg>
