<svg width="10" height="10" viewBox="0 0 10 10" fill="none" xmlns="http://www.w3.org/2000/svg">
<path d="M5.52558 1.03915L6.25002 3.20559C6.28468 3.31319 6.35389 3.40727 6.44747 3.47413C6.54105 3.54099 6.6541 3.5771 6.77033 3.57731H9.11909C9.23468 3.57723 9.34733 3.61266 9.44089 3.67851C9.53444 3.74436 9.60411 3.83726 9.63986 3.94388C9.67562 4.05049 9.67557 4.16536 9.63986 4.27199C9.60415 4.37861 9.53453 4.47152 9.441 4.53741L7.54085 5.87575C7.44715 5.94159 7.37733 6.03453 7.34152 6.14123C7.30571 6.24794 7.30573 6.36291 7.34152 6.46962L8.06595 8.63612C8.10241 8.74314 8.10276 8.85863 8.067 8.96587C8.03125 9.07311 7.96125 9.16648 7.86709 9.23254C7.77293 9.2986 7.65951 9.33392 7.5433 9.33328C7.4271 9.33265 7.31419 9.29616 7.2208 9.22908L5.32146 7.89073C5.2278 7.82497 5.11518 7.78953 4.99954 7.78953C4.88391 7.78953 4.77117 7.82497 4.67751 7.89073L2.77817 9.22443C2.68478 9.2915 2.57188 9.328 2.45567 9.32863C2.33946 9.32926 2.22604 9.294 2.13188 9.22794C2.03772 9.16189 1.96772 9.06846 1.93197 8.96122C1.89622 8.85397 1.89656 8.73848 1.93302 8.63147L2.65745 6.46497C2.69339 6.35827 2.69351 6.24327 2.65769 6.13653C2.62186 6.02978 2.55194 5.93684 2.45813 5.8711L0.556916 4.53276C0.463928 4.46651 0.394881 4.37353 0.359578 4.26699C0.324275 4.16046 0.324613 4.04584 0.360397 3.93946C0.396181 3.83307 0.465618 3.74033 0.558905 3.67449C0.652192 3.60864 0.76451 3.57298 0.879887 3.57266H3.22865C3.34495 3.57274 3.45821 3.53672 3.55185 3.46982C3.64549 3.40292 3.71456 3.30869 3.74895 3.20093L4.47339 1.0354C4.50893 0.928291 4.5786 0.834887 4.67236 0.76862C4.76613 0.702353 4.8792 0.666626 4.99522 0.666626C5.11123 0.666626 5.22419 0.702353 5.31795 0.76862C5.41172 0.834887 5.48139 0.928291 5.51693 1.0354L5.52558 1.03915Z" fill="#F7BD1B" stroke="#47566A" stroke-width="0.4" stroke-miterlimit="10"/>
</svg>
