<svg width="12" height="12" viewBox="0 0 12 12" fill="none" xmlns="http://www.w3.org/2000/svg">
<path d="M5.9826 11.9916C4.98615 11.9934 4.01333 11.6882 3.19658 11.1173C3.10563 11.0539 3.04358 10.957 3.02409 10.8478C3.0046 10.7387 3.02927 10.6263 3.09267 10.5353C3.15606 10.4443 3.253 10.3823 3.36214 10.3628C3.47129 10.3433 3.58371 10.368 3.67466 10.4314C4.28042 10.8531 4.99015 11.1008 5.72677 11.1476C6.46339 11.1944 7.19876 11.0385 7.85301 10.6968C8.50726 10.3551 9.05539 9.84065 9.43787 9.20936C9.82036 8.57806 10.0226 7.85404 10.0226 7.11591C10.0226 6.37778 9.82036 5.65376 9.43787 5.02247C9.05539 4.39117 8.50726 3.87674 7.85301 3.53503C7.19876 3.19332 6.46339 3.0374 5.72677 3.08419C4.99015 3.13098 4.28042 3.3787 3.67466 3.80045C3.58371 3.86385 3.47129 3.88852 3.36214 3.86903C3.253 3.84954 3.15606 3.78749 3.09267 3.69653C3.02927 3.60557 3.0046 3.49315 3.02409 3.384C3.04358 3.27485 3.10563 3.17791 3.19658 3.11451C3.82462 2.67725 4.54675 2.39397 5.30458 2.28758C6.0624 2.18119 6.83462 2.25469 7.55877 2.50213C8.28292 2.74956 8.93865 3.16399 9.47293 3.71188C10.0072 4.25976 10.405 4.92573 10.6342 5.65588C10.8633 6.38604 10.9174 7.15989 10.792 7.91482C10.6666 8.66976 10.3653 9.38457 9.91238 10.0014C9.45949 10.6183 8.86776 11.1199 8.18505 11.4656C7.50235 11.8114 6.74785 11.9916 5.9826 11.9916Z" fill="#1778F2"/>
<path d="M3.19708 7.81109H0.96827C0.857435 7.81109 0.75114 7.76706 0.672768 7.68868C0.594396 7.61031 0.550367 7.50401 0.550367 7.39317C0.550367 7.28233 0.594396 7.17604 0.672768 7.09766C0.75114 7.01929 0.857435 6.97526 0.96827 6.97526H3.19708C3.30792 6.97526 3.41421 7.01929 3.49259 7.09766C3.57096 7.17604 3.61499 7.28233 3.61499 7.39317C3.61499 7.50401 3.57096 7.61031 3.49259 7.68868C3.41421 7.76706 3.30792 7.81109 3.19708 7.81109ZM3.57598 6.13943H0.411067C0.300232 6.13943 0.193937 6.0954 0.115565 6.01702C0.037193 5.93865 -0.00683594 5.83235 -0.00683594 5.72151C-0.00683594 5.61067 0.037193 5.50438 0.115565 5.426C0.193937 5.34763 0.300232 5.3036 0.411067 5.3036H3.57598C3.68682 5.3036 3.79311 5.34763 3.87148 5.426C3.94986 5.50438 3.99388 5.61067 3.99388 5.72151C3.99388 5.83235 3.94986 5.93865 3.87148 6.01702C3.79311 6.0954 3.68682 6.13943 3.57598 6.13943ZM3.75429 9.48275H0.411067C0.300232 9.48275 0.193937 9.43872 0.115565 9.36034C0.037193 9.28197 -0.00683594 9.17567 -0.00683594 9.06483C-0.00683594 8.95399 0.037193 8.8477 0.115565 8.76932C0.193937 8.69095 0.300232 8.64692 0.411067 8.64692H3.75429C3.86512 8.64692 3.97142 8.69095 4.04979 8.76932C4.12816 8.8477 4.17219 8.95399 4.17219 9.06483C4.17219 9.17567 4.12816 9.28197 4.04979 9.36034C3.97142 9.43872 3.86512 9.48275 3.75429 9.48275ZM11.3428 1.34232L9.46395 0.142623C9.24572 0.00393841 8.98141 -0.0425596 8.72896 0.0133225C8.4765 0.0692045 8.25651 0.222907 8.11719 0.440736L7.81741 0.910473C7.67856 1.12851 7.63191 1.39274 7.68769 1.64515C7.74348 1.89756 7.89715 2.11751 8.11496 2.25672L9.99497 3.45585C10.2131 3.59409 10.477 3.64039 10.7292 3.58464C10.9813 3.52888 11.2011 3.37561 11.3406 3.1583L11.6404 2.68856C11.7789 2.47044 11.8254 2.2063 11.7697 1.95398C11.7139 1.70166 11.5604 1.48172 11.3428 1.34232Z" fill="#1778F2"/>
<path d="M8.67953 3.85915C8.60469 3.85899 8.53127 3.83875 8.46694 3.80053C8.4026 3.76231 8.34971 3.70751 8.31378 3.64186C8.27786 3.57622 8.26022 3.50213 8.2627 3.42733C8.26519 3.35254 8.28772 3.27978 8.32793 3.21667L8.92692 2.2772C8.95645 2.23091 8.9948 2.1909 9.03979 2.15944C9.08478 2.12798 9.13552 2.10569 9.18913 2.09384C9.24273 2.08199 9.29814 2.08081 9.3522 2.09038C9.40626 2.09995 9.4579 2.12007 9.50419 2.14959C9.55047 2.17912 9.59048 2.21747 9.62194 2.26246C9.6534 2.30745 9.67569 2.3582 9.68754 2.41181C9.69939 2.46541 9.70056 2.52083 9.691 2.57489C9.68143 2.62895 9.66131 2.68059 9.63179 2.72687L9.03224 3.66579C8.99457 3.7252 8.94247 3.77409 8.88079 3.8079C8.81911 3.84172 8.74986 3.85934 8.67953 3.85915ZM5.98322 3.90818C5.34954 3.90818 4.7301 4.09609 4.20322 4.44815C3.67633 4.80022 3.26568 5.30062 3.02318 5.88607C2.78069 6.47153 2.71724 7.11575 2.84086 7.73727C2.96448 8.35879 3.26963 8.92969 3.7177 9.37778C4.16578 9.82587 4.73666 10.131 5.35816 10.2546C5.97966 10.3783 6.62387 10.3148 7.2093 10.0723C7.79474 9.82982 8.29513 9.41915 8.64718 8.89225C8.99923 8.36535 9.18714 7.74589 9.18714 7.1122C9.18995 6.69065 9.109 6.27275 8.94899 5.88275C8.78897 5.49275 8.55308 5.13843 8.255 4.84034C7.95693 4.54226 7.60261 4.30636 7.21263 4.14634C6.82264 3.98632 6.40475 3.90537 5.98322 3.90818ZM7.37177 6.46025L6.80286 6.95395C6.81334 7.00605 6.81875 7.05905 6.81902 7.1122C6.82186 7.293 6.76691 7.47 6.66217 7.6174C6.55743 7.76481 6.40837 7.87493 6.2367 7.93174C6.06503 7.98854 5.87971 7.98906 5.70772 7.93322C5.53573 7.87738 5.38606 7.76809 5.2805 7.62127C5.17493 7.47446 5.11899 7.29778 5.12081 7.11695C5.12264 6.93613 5.18213 6.76062 5.29064 6.61596C5.39914 6.4713 5.55098 6.36506 5.72406 6.31269C5.89714 6.26033 6.08241 6.26459 6.2529 6.32484L6.82348 5.82892C6.9072 5.75621 7.01637 5.71973 7.12698 5.72752C7.23759 5.7353 7.34057 5.78671 7.41328 5.87043C7.48599 5.95415 7.52246 6.06333 7.51468 6.17394C7.50689 6.28455 7.45549 6.38754 7.37177 6.46025Z" fill="#1778F2"/>
</svg>
