<svg width="24" height="24" viewBox="0 0 24 24" fill="none" xmlns="http://www.w3.org/2000/svg">
<path d="M11.5771 20.7886C8.92571 20.7771 6.26285 20.6171 3.64571 20.3429C2.53714 20.3429 1.58857 19.3943 1.58857 18.2286C1.31428 16.1029 1.15428 13.8743 1.14285 11.68C1.16571 9.34857 1.31428 6.99428 1.58857 4.68571C1.58857 3.58857 2.53714 2.64 3.70285 2.62857C3.69142 2.62857 7.76 2.28571 11.76 2.28571C15.76 2.28571 19.8171 2.62857 19.8629 2.64C20.9829 2.64 21.9314 3.58857 21.9314 4.75428C21.9314 4.75428 22.3314 8.33143 22.3314 11.6686C22.32 13.8629 22.1829 16.08 21.9314 18.2514C21.9086 19.4057 20.9714 20.3314 19.8171 20.3314C19.8286 20.3429 15.5886 20.7886 11.5771 20.7886ZM11.76 3.42857C7.80571 3.42857 3.79428 3.77143 3.74857 3.77143C3.16571 3.77143 2.72 4.21714 2.72 4.75428C2.45714 7.09714 2.30857 9.40571 2.28571 11.68C2.29714 13.8286 2.44571 16 2.73142 18.1486C2.73142 18.7657 3.17714 19.2 3.71428 19.2C6.35428 19.4857 8.98285 19.6343 11.5886 19.6457C15.5314 19.6457 19.7143 19.2114 19.7486 19.2C20.3429 19.2 20.7886 18.7543 20.7886 18.2171V18.1486C21.04 16.0114 21.1771 13.8286 21.1886 11.6686C21.1886 8.37714 20.8 4.85714 20.7886 4.81143C20.7886 4.20571 20.3429 3.77143 19.8057 3.77143C19.7257 3.77143 15.7143 3.42857 11.76 3.42857Z" fill="#2E3742"/>
<path d="M21.8285 6.89144C20.3656 6.85715 19.1314 6.80001 17.9199 6.74287C16.0228 6.66287 14.2285 6.58287 11.7371 6.58287C7.70279 6.58287 1.77136 6.88001 1.71422 6.89144L1.65707 5.74858C1.71422 5.74858 7.67993 5.44001 11.7485 5.44001C14.2628 5.44001 16.0685 5.52001 17.9771 5.60001C19.1771 5.65715 20.4114 5.70287 21.8628 5.73715L21.8285 6.89144Z" fill="#2E3742"/>
<path d="M9.30301 16.4914L8.96016 16.1714L8.14873 15.4286L7.16587 14.5143L6.32016 13.7143C6.18301 13.5886 6.04587 13.4628 5.90873 13.3371L6.04587 13.6686V13.3943L5.5773 13.8628H6.11444C6.2973 13.8628 6.49159 13.8743 6.67444 13.8628C7.12016 13.84 7.53159 13.7143 7.8973 13.4743C8.25159 13.2457 8.5373 12.9257 8.74301 12.56C9.15444 11.7828 9.12016 10.8457 8.64016 10.1028C8.19444 9.40571 7.4173 8.97142 6.58301 8.97142H5.34873C5.22301 8.97142 5.10873 9.01713 5.0173 9.10856C4.83444 9.29142 4.83444 9.58856 5.0173 9.75999C5.10873 9.83999 5.22301 9.89713 5.34873 9.89713H6.52587C6.64016 9.89713 6.74301 9.89713 6.8573 9.91999L6.73159 9.90856C6.90301 9.93142 7.07444 9.97713 7.23444 10.0457L7.12016 9.99999C7.28016 10.0686 7.42873 10.1486 7.56587 10.2628L7.47444 10.1828C7.60016 10.2857 7.72587 10.4114 7.82873 10.5371L7.74873 10.4457C7.85159 10.5828 7.94301 10.7314 8.01159 10.8914L7.96587 10.7771C8.03444 10.9371 8.08016 11.1086 8.10301 11.28C8.10301 11.2343 8.09159 11.2 8.08016 11.1543C8.10301 11.3257 8.10301 11.4971 8.08016 11.6686C8.09159 11.6228 8.09159 11.5886 8.10301 11.5428C8.08016 11.7143 8.03444 11.8857 7.96587 12.0457L8.01159 11.9314C7.94301 12.1028 7.86301 12.2514 7.74873 12.3886L7.8173 12.2971C7.72587 12.4228 7.60016 12.5486 7.47444 12.6514L7.56587 12.5714C7.42873 12.6743 7.28016 12.7657 7.12016 12.8343L7.23444 12.7886C7.07444 12.8571 6.90301 12.9029 6.73159 12.9257L6.8573 12.9028C6.68587 12.9257 6.52587 12.9257 6.35444 12.9257H5.58873C5.3373 12.9257 5.13159 13.1314 5.12016 13.3943C5.12016 13.4857 5.12016 13.5657 5.12016 13.6571C5.12016 13.7943 5.1773 13.92 5.28016 14.0114L5.46301 14.1714L6.24016 14.8914L7.26873 15.8514L8.19444 16.72C8.34301 16.8571 8.50301 17.0057 8.65159 17.1543H8.66301C8.75444 17.2343 8.86873 17.2914 8.99444 17.2914C9.12016 17.2914 9.23444 17.2457 9.32587 17.1543C9.4173 17.0629 9.46302 16.9486 9.46302 16.8229C9.46302 16.6971 9.4173 16.5829 9.32587 16.4914H9.30301Z" fill="#2E3742"/>
<path d="M5.34873 9.90856H9.66873C9.86302 9.90856 10.0687 9.90856 10.263 9.90856H10.2744C10.4002 9.90856 10.5144 9.86285 10.6059 9.77142C10.7887 9.58856 10.7887 9.29142 10.6059 9.11999C10.5144 9.02856 10.3887 8.98285 10.2744 8.98285H5.95444C5.76016 8.98285 5.55444 8.98285 5.36016 8.98285H5.34873C5.22301 8.98285 5.10873 9.02856 5.0173 9.11999C4.83444 9.30285 4.83444 9.59999 5.0173 9.77142C5.10873 9.85142 5.22301 9.90856 5.34873 9.90856Z" fill="#2E3742"/>
<path d="M5.34873 11.8857H9.66873C9.86302 11.8857 10.0687 11.8857 10.263 11.8857H10.2744C10.4002 11.8857 10.5144 11.84 10.6059 11.7486C10.7887 11.5657 10.7887 11.2686 10.6059 11.0971C10.5144 11.0057 10.3887 10.96 10.2744 10.9486H5.95444C5.76016 10.9486 5.55444 10.9486 5.36016 10.9486H5.34873C5.22301 10.9486 5.10873 10.9943 5.0173 11.0857C4.83444 11.2686 4.83444 11.5657 5.0173 11.7371C5.10873 11.8286 5.22301 11.8857 5.34873 11.8857Z" fill="#2E3742"/>
<path d="M18.5458 10.3989H21.2095C22.1862 10.3989 22.9854 11.0592 22.9854 11.8662C22.9854 12.6732 22.1862 13.3335 21.2095 13.3335H18.5458C17.5691 13.3335 16.77 12.6732 16.77 11.8662C16.77 11.0518 17.5691 10.3989 18.5458 10.3989Z" fill="white"/>
<path d="M18.1713 10.6286C17.5427 10.6286 17.0284 11.1429 17.0284 11.7715C17.0284 12.4001 17.5427 12.9143 18.1713 12.9143H21.5999C22.2284 12.9143 22.7427 12.4001 22.7427 11.7715C22.7427 11.1429 22.2284 10.6286 21.5999 10.6286H18.1713ZM18.1713 9.48577H21.5999C22.857 9.48577 23.8856 10.5143 23.8856 11.7715C23.8856 13.0286 22.857 14.0572 21.5999 14.0572H18.1713C16.9142 14.0572 15.8856 13.0286 15.8856 11.7715C15.8856 10.5029 16.9142 9.48577 18.1713 9.48577Z" fill="#2E3742"/>
</svg>
