<svg width="54" height="57" viewBox="0 0 54 57" fill="none" xmlns="http://www.w3.org/2000/svg">
<path opacity="0.05" d="M19.5241 50.4624C13.0319 46.0113 7.41855 40.3987 2.96692 33.9074C1.08638 31.9825 0.0232685 29.4049 3.22695e-05 26.7141C-0.00333596 25.379 0.257004 24.0563 0.76614 22.822C1.27528 21.5877 2.02318 20.4661 2.96692 19.5216C7.71665 13.2846 13.2859 7.7165 19.5241 2.96789C21.4489 1.08727 24.0265 0.0238022 26.7176 3.21034e-05C28.0529 -0.00332814 29.3757 0.257129 30.6101 0.766446C31.8445 1.27576 32.9661 2.0239 33.9104 2.96789C40.0613 7.81562 45.6187 13.3719 50.4676 19.5216C52.3489 21.4458 53.4126 24.0233 53.4358 26.7141C53.4391 28.0495 53.1786 29.3724 52.6692 30.6068C52.1599 31.8412 51.4116 32.9629 50.4676 33.9074C45.6236 40.0618 40.0656 45.619 33.9104 50.4624C32.6847 51.6684 31.1811 52.5545 29.5322 53.0424C28.6162 53.3085 27.6667 53.441 26.7129 53.4357C25.5149 53.4086 24.3304 53.177 23.2105 52.7507C21.8447 52.2346 20.5926 51.4573 19.5241 50.4624Z" fill="url(#paint0_linear_0_3433)"/>
<path d="M32.7519 3.91652L31.8189 3.67559C31.2523 3.52927 30.6743 3.86998 30.528 4.43661L28.0188 14.153C27.8725 14.7196 28.2132 15.2976 28.7798 15.4439L29.7128 15.6848C30.2794 15.8311 30.8574 15.4904 31.0037 14.9238L33.5129 5.20743C33.6592 4.64081 33.3185 4.06285 32.7519 3.91652Z" fill="#1778F2" stroke="#050A4E" stroke-width="0.397926" stroke-miterlimit="10"/>
<path d="M11.1852 41.689L9.57763 46.9757L14.5027 53.4227L17.793 53.9911L20.3194 51.4092L11.1852 41.689Z" fill="white"/>
<path d="M35.5411 34.1898C35.1779 35.7702 34.8555 37.1748 33.6356 37.7564C33.2901 37.9288 32.9096 38.0191 32.5235 38.0204C32.1374 38.0217 31.7561 37.9338 31.4095 37.7638C29.8178 36.8679 30.205 33.9755 30.3295 33.0404C30.5034 31.7414 30.7075 30.2128 32.0104 29.3726C32.9513 28.7661 34.4583 28.5228 35.3423 29.2305C36.4718 30.1332 36.0135 32.1314 35.5411 34.1898Z" fill="white" stroke="#211F20" stroke-width="0.397926" stroke-miterlimit="10"/>
<path d="M13.861 18.9031C12.4819 19.0435 10.7379 21.4288 9.35876 31.8966C9.06828 33.1978 7.92105 38.9876 11.3216 44.1123C12.4558 45.8008 13.9231 47.2397 15.6334 48.3406C17.7008 49.6988 20.09 50.4877 22.5596 50.6275C26.166 50.764 29.6165 48.016 36.5245 42.5286C37.6046 41.6725 38.919 40.5793 38.903 39.0695C38.8866 37.55 37.5251 35.9429 36.1545 35.8503C34.6077 35.7479 34.1916 37.6307 32.2889 38.717C28.8145 40.7027 23.4277 38.3691 20.4472 35.8571C19.6246 35.1641 15.409 31.6106 16.0735 28.0952C16.3208 26.7878 17.1461 26.0095 17.1785 23.9062C17.2711 22.754 16.983 21.6033 16.3583 20.6307C16.2878 20.5312 15.0604 18.7803 13.861 18.9031Z" fill="white" stroke="#050A4E" stroke-width="0.397926" stroke-miterlimit="10"/>
<path d="M36.7854 19.1001C33.1597 22.9316 30.1839 28.826 31.364 29.7305C33.1263 31.0777 44.8315 21.8288 44.4222 17.2975C44.3999 16.8451 44.2387 16.4106 43.9606 16.0531C43.6825 15.6955 43.3011 15.4324 42.8681 15.2994C40.8358 14.8207 37.8223 18.0047 36.7854 19.1001Z" fill="white" stroke="#050A4E" stroke-width="0.397926" stroke-miterlimit="10"/>
<path d="M37.8021 41.5709C39.1621 40.0451 39.3171 37.9638 38.1483 36.922C36.9795 35.8802 34.9295 36.2725 33.5696 37.7982C32.2096 39.3239 32.0547 41.4053 33.2235 42.4471C34.3922 43.4889 36.4422 43.0966 37.8021 41.5709Z" fill="white" stroke="#050A4E" stroke-width="0.397926" stroke-miterlimit="10"/>
<path d="M15.5892 50.921L23.7945 53.0016C26.0416 53.5701 28.5412 51.4298 29.3489 48.243C30.7388 44.3774 32.1701 39.8746 33.4577 34.8118C34.7652 29.6621 35.669 24.9507 36.3 20.8333C36.6709 19.3827 36.6145 17.8559 36.1375 16.4367C35.9562 15.8627 35.6382 15.3414 35.2108 14.9174C34.7835 14.4935 34.2595 14.1798 33.6841 14.0031L25.4782 11.9225C23.2316 11.3541 20.7321 13.4944 19.9237 16.6812C18.7908 19.8151 17.6584 23.289 16.6056 27.0841C15.0536 32.6755 13.8408 38.3555 12.9742 44.0932C12.6561 45.3603 12.6541 46.6862 12.9685 47.9542C13.1122 48.6328 13.4291 49.2627 13.8884 49.7826C14.3476 50.3025 14.9335 50.6947 15.5892 50.921Z" fill="#1778F2" stroke="#050A4E" stroke-width="0.397926" stroke-miterlimit="10"/>
<path d="M37.2792 37.4095C38.6391 35.8838 38.7941 33.8024 37.6253 32.7606C36.4565 31.7188 34.4066 32.1111 33.0466 33.6368C31.6867 35.1626 31.5317 37.244 32.7005 38.2857C33.8693 39.3275 35.9192 38.9352 37.2792 37.4095Z" fill="white" stroke="#050A4E" stroke-width="0.397926" stroke-miterlimit="10"/>
<path d="M19.6417 52.2588C19.3196 52.4977 19.0157 52.7601 18.7322 53.0438C17.8984 53.8859 17.2494 54.8927 16.8267 55.9999" fill="white"/>
<path d="M19.6417 52.2588C19.3196 52.4977 19.0157 52.7601 18.7322 53.0438C17.8984 53.8859 17.2494 54.8927 16.8267 55.9999" stroke="#050A4E" stroke-width="0.397926" stroke-miterlimit="10" stroke-linecap="round"/>
<path d="M6.8219 47.2411C8.398 46.1091 9.69158 44.6284 10.6017 42.9146L6.8219 47.2411Z" fill="white"/>
<path d="M6.8219 47.2411C8.398 46.1091 9.69158 44.6284 10.6017 42.9146" stroke="#050A4E" stroke-width="0.397926" stroke-miterlimit="10" stroke-linecap="round"/>
<path d="M16.3751 49.8281L23.3774 51.604C25.2943 52.0901 27.4869 50.0282 28.2492 47.0228C29.5254 43.3658 30.8504 39.1154 32.0647 34.3403C33.2994 29.4833 34.1749 25.0464 34.8036 21.1723C35.1522 19.8191 35.1365 18.3978 34.7581 17.0527C34.6325 16.5374 34.378 16.0625 34.0185 15.6725C33.6591 15.2825 33.2064 14.9903 32.7031 14.8231L25.7008 13.0478C23.7834 12.5618 21.5913 14.623 20.829 17.6285C19.7887 20.5914 18.7421 23.8737 17.7592 27.4522C16.3066 32.727 15.144 38.0775 14.2768 43.4795C13.9773 44.6646 13.9474 45.9019 14.1894 47.1001C14.6953 49.2898 16.1511 49.7616 16.3751 49.8281Z" fill="white" stroke="#050A4E" stroke-width="0.397926" stroke-miterlimit="10"/>
<path d="M36.8329 31.7782C38.1928 30.2524 38.3478 28.171 37.179 27.1292C36.0102 26.0874 33.9603 26.4798 32.6003 28.0055C31.2404 29.5312 31.0854 31.6126 32.2542 32.6544C33.423 33.6962 35.4729 33.3039 36.8329 31.7782Z" fill="white" stroke="#050A4E" stroke-width="0.397926" stroke-miterlimit="10"/>
<path d="M27.3015 21.7196C26.695 21.4638 23.3683 25.6056 24.5802 27.4207C24.8316 27.7418 25.1602 27.9941 25.5354 28.154C25.9105 28.3139 26.32 28.3763 26.7257 28.3354C27.2254 28.2986 27.6903 28.0656 28.0189 27.6873C28.3174 27.2696 28.4424 26.7525 28.3674 26.2446C28.3003 25.3782 27.8689 25.1327 27.5443 24.2942C26.986 22.8525 27.5915 21.8435 27.3015 21.7196Z" fill="#F40009" stroke="#050A4E" stroke-width="0.397926" stroke-miterlimit="10"/>
<path d="M19.4747 34.874L27.377 36.9148" stroke="#050A4E" stroke-width="0.397926" stroke-miterlimit="10" stroke-linecap="round"/>
<path d="M18.6231 38.1714L26.5254 40.2122" stroke="#050A4E" stroke-width="0.397926" stroke-miterlimit="10" stroke-linecap="round"/>
<path d="M17.7349 41.6111L25.6371 43.6519" stroke="#050A4E" stroke-width="0.397926" stroke-miterlimit="10" stroke-linecap="round"/>
<path d="M42.9368 18.5483C43.5121 18.2578 47.0952 21.5851 46.11 24.1193C45.9586 24.5381 45.7008 24.9104 45.362 25.1994C45.0231 25.4885 44.6148 25.6844 44.1773 25.7678C43.6939 25.792 43.2136 25.677 42.7936 25.4363C42.3736 25.1957 42.0316 24.8396 41.8079 24.4103C41.5023 23.8147 41.4155 23.1306 41.5628 22.4775C41.6752 22.045 41.8427 21.6287 42.0614 21.2389C42.2888 20.7943 42.3781 20.7272 42.5202 20.4481C43.0517 19.4226 42.6924 18.6722 42.9368 18.5483Z" fill="#F40009" stroke="#050A4E" stroke-width="0.397926" stroke-miterlimit="10" stroke-linecap="round"/>
<defs>
<linearGradient id="paint0_linear_0_3433" x1="26.7179" y1="0" x2="26.7179" y2="53.4358" gradientUnits="userSpaceOnUse">
<stop stop-color="#1778F2"/>
<stop offset="1" stop-color="#F40009"/>
</linearGradient>
</defs>
</svg>
