<svg width="54" height="57" viewBox="0 0 54 57" fill="none" xmlns="http://www.w3.org/2000/svg">
<path opacity="0.05" d="M19.588 50.6277C13.0746 46.1621 7.44285 40.531 2.97663 34.0184C1.08994 32.0872 0.0233447 29.5012 3.23752e-05 26.8016C-0.00334688 25.4621 0.257846 24.1351 0.768649 22.8968C1.27945 21.6585 2.02981 20.5332 2.97663 19.5855C7.74193 13.3281 13.3294 7.74178 19.588 2.97761C21.5191 1.09083 24.1052 0.0238802 26.8051 3.22086e-05C28.1448 -0.00333904 29.472 0.257971 30.7104 0.768956C31.9488 1.27994 33.074 2.03053 34.0215 2.97761C40.1925 7.84122 45.7681 13.4157 50.6329 19.5855C52.5204 21.516 53.5875 24.102 53.6108 26.8016C53.6142 28.1414 53.3528 29.4686 52.8418 30.707C52.3307 31.9455 51.58 33.0708 50.6329 34.0184C45.773 40.193 40.1968 45.7685 34.0215 50.6277C32.7918 51.8377 31.2832 52.7266 29.6289 53.2162C28.71 53.4832 27.7573 53.616 26.8004 53.6107C25.5985 53.5835 24.4101 53.3511 23.2866 52.9235C21.9163 52.4057 20.66 51.6259 19.588 50.6277Z" fill="url(#paint0_linear_0_3363)"/>
<path d="M23.8007 32.4285C22.9171 33.942 22.0333 35.4553 21.1496 36.9684L18.8836 40.8509C17.2484 39.5254 15.6131 38.1798 13.9775 36.8141L13.334 36.2761C14.1434 35.2317 14.9546 34.1358 15.7676 32.9882C17.3582 30.7415 18.7699 28.5448 20.0219 26.4324L23.8007 32.4285Z" fill="white"/>
<path d="M9.94537 39.6528C10.2041 39.2434 10.5349 38.8841 10.9215 38.5924H10.9275C11.0601 38.4538 11.0661 38.4599 11.3492 38.1887C12.2172 37.3603 13.0416 36.4875 13.8194 35.5739C14.0966 35.2485 14.3859 34.9051 14.6751 34.5376C15.422 33.5905 16.1101 32.5985 16.7356 31.5672C17.556 30.2259 18.2731 28.824 18.8806 27.3738" stroke="#050A4E" stroke-width="0.421753" stroke-miterlimit="10" stroke-linecap="round"/>
<path d="M20.4842 40.8296C20.7823 41.6865 21.0239 42.562 21.2073 43.4505C21.5484 45.1038 21.4954 45.8877 21.9093 47.7795C22.075 48.5369 22.2274 49.0713 22.4003 49.675C22.9595 51.614 23.6475 53.5135 24.4596 55.3608L13.1825 55.0596L9.22051 51.9392L10.2502 45.3876L11.6854 40.5205C13.9785 38.5034 16.8169 37.9201 18.7672 39.0233C19.4998 39.4497 20.0955 40.0763 20.4842 40.8296Z" fill="white"/>
<path d="M24.3135 55.8475C23.3605 53.0119 22.7173 50.0815 22.3951 47.1075C22.0565 43.9058 22.1149 41.0222 20.211 38.7773C19.5898 38.0689 18.864 37.4593 18.0589 36.9698C16.9487 36.2908 15.7134 35.8417 14.4263 35.6491C14.1298 35.6015 13.8265 35.6163 13.536 35.6927C13.2455 35.7691 12.9741 35.9052 12.7393 36.0926C12.2478 36.4886 11.7935 36.9287 11.3819 37.4072C10.2608 38.7974 9.45705 40.4157 9.02675 42.1489C8.28627 44.8337 7.89831 49.7736 8.53516 55.9999" fill="white"/>
<path d="M24.3135 55.8475C23.3605 53.0119 22.7173 50.0815 22.3951 47.1075C22.0565 43.9058 22.1149 41.0222 20.211 38.7773C19.5898 38.0689 18.864 37.4593 18.0589 36.9698C16.9487 36.2908 15.7134 35.8417 14.4263 35.6491C14.1298 35.6015 13.8265 35.6163 13.536 35.6927C13.2455 35.7691 12.9741 35.9052 12.7393 36.0926C12.2478 36.4886 11.7935 36.9287 11.3819 37.4072C10.2608 38.7974 9.45705 40.4157 9.02675 42.1489C8.28627 44.8337 7.89831 49.7736 8.53516 55.9999" stroke="#050A4E" stroke-width="0.421753" stroke-miterlimit="10" stroke-linecap="round"/>
<path d="M20.151 38.7062C20.4041 38.2604 20.6874 37.7964 20.9946 37.3265C21.5182 36.5127 22.0833 35.7264 22.6877 34.9707" fill="white"/>
<path d="M20.151 38.7062C20.4041 38.2604 20.6874 37.7964 20.9946 37.3265C21.5182 36.5127 22.0833 35.7264 22.6877 34.9707" stroke="#050A4E" stroke-width="0.421753" stroke-miterlimit="10" stroke-linecap="round"/>
<path d="M19.7045 20.1824C16.0624 26.0195 18.2965 35.395 23.9125 37.3134C28.2903 38.8088 33.7724 35.4456 36.0336 31.1022C38.9341 25.5302 37.1652 17.1319 31.7263 15.0756C27.3781 13.4283 22.0868 16.3655 19.7045 20.1824Z" fill="white" stroke="#050A4E" stroke-width="0.474171" stroke-miterlimit="10"/>
<path d="M30.6243 21.6853C30.1772 23.9145 27.2401 25.4407 25.8344 24.7653C24.5565 24.1513 24.9439 21.813 23.995 21.7389C23.0949 21.669 21.8717 23.2247 21.7452 24.7454C21.6247 26.1691 22.5628 26.6204 22.408 27.7784C22.1869 29.4184 19.998 31.1018 18.6038 30.7017C16.539 30.1083 15.4146 24.7002 17.1011 20.6839C18.007 18.6435 19.555 16.955 21.5091 15.8753C22.3262 15.3784 23.2584 15.1022 24.2143 15.074C26.4568 15.074 27.9962 16.7128 28.6222 17.3779C29.5759 18.3932 30.9846 19.8898 30.6243 21.6853Z" fill="#050A4E" stroke="#050A4E" stroke-width="0.421753" stroke-miterlimit="10"/>
<path d="M10.6295 16.2293C10.912 14.8207 11.323 14.373 11.7002 14.2863C12.3539 14.1356 12.9154 15.0665 13.4474 14.8412C14.0143 14.6002 13.71 13.412 14.3216 13.1222C14.8698 12.8625 15.4284 13.6645 16.0315 13.4084C16.6057 13.1614 16.4249 12.292 17.0069 11.9323C17.3245 11.7365 17.8782 11.6852 18.9176 12.2365" fill="white"/>
<path d="M10.6295 16.2293C10.912 14.8207 11.323 14.373 11.7002 14.2863C12.3539 14.1356 12.9154 15.0665 13.4474 14.8412C14.0143 14.6002 13.71 13.412 14.3216 13.1222C14.8698 12.8625 15.4284 13.6645 16.0315 13.4084C16.6057 13.1614 16.4249 12.292 17.0069 11.9323C17.3245 11.7365 17.8782 11.6852 18.9176 12.2365" stroke="#050A4E" stroke-width="0.421753" stroke-miterlimit="10" stroke-linecap="round"/>
<path d="M34.0685 6.72925C35.5049 6.78468 36.0116 7.11967 36.1568 7.47816C36.4093 8.09934 35.5791 8.80367 35.8863 9.2929C36.2129 9.81467 37.3389 9.32604 37.7221 9.88396C38.0655 10.3834 37.3606 11.0631 37.7106 11.6174C38.045 12.1452 38.8753 11.8288 39.3223 12.347C39.5633 12.629 39.7043 13.1676 39.3223 14.281" fill="white"/>
<path d="M34.0685 6.72925C35.5049 6.78468 36.0116 7.11967 36.1568 7.47816C36.4093 8.09934 35.5791 8.80367 35.8863 9.2929C36.2129 9.81467 37.3389 9.32604 37.7221 9.88396C38.0655 10.3834 37.3606 11.0631 37.7106 11.6174C38.045 12.1452 38.8753 11.8288 39.3223 12.347C39.5633 12.629 39.7043 13.1676 39.3223 14.281" stroke="#050A4E" stroke-width="0.421753" stroke-miterlimit="10" stroke-linecap="round"/>
<path d="M43.6127 10.762C44.7099 11.6904 44.9026 12.2682 44.7966 12.6382C44.6122 13.2834 43.5259 13.325 43.465 13.9034C43.4006 14.5156 44.5887 14.824 44.5496 15.4995C44.5122 16.102 43.5373 16.2044 43.4728 16.8581C43.4126 17.4799 44.2598 17.742 44.2929 18.4246C44.311 18.797 44.088 19.3067 43.1029 19.9502" fill="white"/>
<path d="M43.6127 10.762C44.7099 11.6904 44.9026 12.2682 44.7966 12.6382C44.6122 13.2834 43.5259 13.325 43.465 13.9034C43.4006 14.5156 44.5887 14.824 44.5496 15.4995C44.5122 16.102 43.5373 16.2044 43.4728 16.8581C43.4126 17.4799 44.2598 17.742 44.2929 18.4246C44.311 18.797 44.088 19.3067 43.1029 19.9502" stroke="#050A4E" stroke-width="0.421753" stroke-miterlimit="10" stroke-linecap="round"/>
<path d="M28.0827 5.20911C28.5232 3.84143 28.9829 3.44378 29.3667 3.4016C30.0337 3.32629 30.4856 4.315 31.0417 4.15172C31.6322 3.9788 31.4634 2.76234 32.1062 2.54363C32.6798 2.34782 33.1432 3.21121 33.7722 3.02262C34.3705 2.84187 34.2898 1.958 34.9091 1.66699C35.2465 1.50913 35.8033 1.52118 36.7727 2.18695" fill="white"/>
<path d="M28.0827 5.20911C28.5232 3.84143 28.9829 3.44378 29.3667 3.4016C30.0337 3.32629 30.4856 4.315 31.0417 4.15172C31.6322 3.9788 31.4634 2.76234 32.1062 2.54363C32.6798 2.34782 33.1432 3.21121 33.7722 3.02262C34.3705 2.84187 34.2898 1.958 34.9091 1.66699C35.2465 1.50913 35.8033 1.52118 36.7727 2.18695" stroke="#050A4E" stroke-width="0.421753" stroke-miterlimit="10" stroke-linecap="round"/>
<path d="M18.5114 5.77334C19.7676 5.07564 20.3751 5.09914 20.6853 5.3299C21.2234 5.72996 20.8787 6.76084 21.3963 7.02173C21.9457 7.29828 22.6549 6.29872 23.2719 6.57407C23.825 6.8229 23.5732 7.77004 24.1618 8.06105C24.7221 8.3388 25.2667 7.63929 25.918 7.84836C26.2729 7.96284 26.6706 8.35145 26.9243 9.50043" fill="white"/>
<path d="M18.5114 5.77334C19.7676 5.07564 20.3751 5.09914 20.6853 5.3299C21.2234 5.72996 20.8787 6.76084 21.3963 7.02173C21.9457 7.29828 22.6549 6.29872 23.2719 6.57407C23.825 6.8229 23.5732 7.77004 24.1618 8.06105C24.7221 8.3388 25.2667 7.63929 25.918 7.84836C26.2729 7.96284 26.6706 8.35145 26.9243 9.50043" stroke="#050A4E" stroke-width="0.421753" stroke-miterlimit="10" stroke-linecap="round"/>
<path d="M12.2711 47.2642C12.2907 49.064 12.4159 50.8611 12.6459 52.6463C12.7881 53.7501 12.9634 54.7961 13.1604 55.7794" stroke="#050A4E" stroke-width="0.421753" stroke-miterlimit="10" stroke-linecap="round"/>
<defs>
<linearGradient id="paint0_linear_0_3363" x1="26.8054" y1="0" x2="26.8054" y2="53.6109" gradientUnits="userSpaceOnUse">
<stop stop-color="#1778F2"/>
<stop offset="1" stop-color="#F40009"/>
</linearGradient>
</defs>
</svg>
