<svg width="54" height="57" viewBox="0 0 54 57" fill="none" xmlns="http://www.w3.org/2000/svg">
<path opacity="0.05" d="M19.7302 50.9952C13.1695 46.4971 7.49688 40.8252 2.99824 34.2654C1.09785 32.3201 0.0235142 29.7154 3.26102e-05 26.9962C-0.00337118 25.6469 0.259717 24.3103 0.774228 23.063C1.28874 21.8157 2.04454 20.6822 2.99824 19.7277C7.79812 13.4248 13.4261 7.79797 19.7302 2.99923C21.6753 1.09874 24.2801 0.0240535 26.9996 3.24424e-05C28.3491 -0.00336328 29.6859 0.259844 30.9333 0.774538C32.1807 1.28923 33.3141 2.04527 34.2684 2.99923C40.4842 7.89814 46.1003 13.5131 51.0004 19.7277C52.9016 21.6722 53.9765 24.2769 54 26.9962C54.0033 28.3456 53.7401 29.6825 53.2253 30.9299C52.7106 32.1774 51.9544 33.3109 51.0004 34.2654C46.1052 40.4847 40.4886 46.1007 34.2684 50.9952C33.0298 52.2139 31.5103 53.1093 29.844 53.6025C28.9183 53.8714 27.9588 54.0052 26.9949 53.9998C25.7843 53.9725 24.5873 53.7384 23.4556 53.3077C22.0754 52.7861 20.81 52.0006 19.7302 50.9952Z" fill="url(#paint0_linear_0_3404)"/>
<path d="M8.15625 23.1064C7.95285 23.0516 8.37171 21.9628 8.08936 20.1316C8.01589 19.6552 7.94682 19.4644 7.82785 18.9639C7.65515 18.2385 7.64582 18.1415 7.62279 17.9973C7.48737 17.1694 7.39527 16.6036 7.66994 16.426C7.94461 16.2484 8.43311 16.5527 8.46929 16.5757C8.7834 16.8159 9.00294 17.1591 9.08938 17.545C9.29639 18.1379 9.39769 18.7625 9.3887 19.3904C9.3943 19.6379 9.38331 19.8856 9.35581 20.1316C9.18421 21.7331 8.39583 23.1673 8.15625 23.1064Z" fill="white" stroke="#050A4E" stroke-width="0.219299" stroke-miterlimit="10" stroke-linecap="round"/>
<path d="M13.3092 19.2591C13.4894 19.5301 13.557 19.8605 13.498 20.1805C13.439 20.5006 13.2579 20.7851 12.9929 20.974C12.7451 21.0974 12.5406 20.9926 11.6705 20.7788C11.1892 20.6609 10.6974 20.5875 10.2155 20.4718C9.73357 20.3561 8.80482 20.1681 6.95667 19.7925C5.04603 19.4044 4.09097 19.2108 3.83165 19.1785C3.2538 19.1067 2.68802 18.963 2.1151 18.8605C1.37825 18.7289 1.17977 18.6993 1.02626 18.5157C0.850568 18.1989 0.806157 17.8259 0.90252 17.4767C0.998883 17.1275 1.22833 16.8301 1.54162 16.6483C1.8341 16.574 2.14346 16.6054 2.41499 16.7371C3.23243 16.9817 4.08111 17.1209 4.898 17.3676C4.96708 17.3885 5.74724 17.5683 7.30482 17.9274C10.6288 18.6949 10.8427 18.7382 11.1809 18.7903C11.6058 18.8561 12.023 18.9636 12.4474 19.0332C13.0379 19.1302 13.1749 19.1297 13.3092 19.2591Z" fill="white" stroke="#050A4E" stroke-width="0.219299" stroke-miterlimit="10" stroke-linecap="round"/>
<path d="M9.41129 18.4355C9.53479 18.7524 9.55793 19.0996 9.47761 19.4301C9.40627 19.7125 9.26271 19.9715 9.06097 20.1817L12.8439 20.9959C13.0578 20.8932 13.2359 20.7284 13.3548 20.523C13.4737 20.3177 13.528 20.0812 13.5105 19.8445C13.4687 19.5923 13.3387 19.363 13.1438 19.1976L9.41129 18.4355Z" fill="#F40009" stroke="#050A4E" stroke-width="0.219299" stroke-miterlimit="10" stroke-linecap="round"/>
<path d="M23.6663 22.6931C23.9737 23.2896 24.1295 23.9527 24.1197 24.6237C24.1099 25.2947 23.9349 25.9529 23.6101 26.5402C23.2854 27.1275 22.8209 27.6257 22.2578 27.9908C21.6948 28.3559 21.0504 28.5766 20.3817 28.6333C18.3867 37.2839 17.3675 46.1308 17.3433 55.0085L33.265 54.7047C32.7357 53.4807 32.4172 52.1759 32.3231 50.8456C32.2952 50.2074 32.3055 49.5681 32.3538 48.9311C32.3736 48.2639 32.3856 46.7102 31.5029 41.8209C30.9547 38.7781 30.9547 39.419 30.8346 38.3878C30.396 34.6487 31.328 32.902 30.3483 29.6668C29.9563 28.3713 29.6794 27.6004 29.6794 27.6004C29.2862 26.6604 29.1107 25.6436 29.166 24.6261C29.2212 23.6086 29.5059 22.6168 29.9985 21.7249L23.6663 22.6931Z" fill="white"/>
<path d="M17.9334 36.9898C16.2843 40.0644 14.071 41.8144 12.3385 41.4553C11.1899 41.2162 10.5392 40.1099 10.1379 39.4268C8.17239 36.0863 9.76559 32.3544 8.97886 28.4311C8.88828 27.8922 8.76453 27.3593 8.60826 26.8357C8.18282 25.5972 7.64225 25.1153 7.60168 23.7529C7.58249 23.1158 7.69433 23.0095 8.04027 22.0155C8.09509 21.8581 8.3237 21.1597 8.73324 19.7435C9.39717 17.4513 9.49256 16.794 9.86153 16.7501C10.1773 16.7123 10.4646 17.1503 10.532 17.2485C11.0134 17.976 10.7393 18.9513 10.4668 19.8729C10.2415 20.6345 9.79467 21.7534 10.0918 22.4031C10.1036 22.4303 10.1176 22.4565 10.1335 22.4815C10.4049 22.8949 11.105 22.6103 11.8215 22.9075C12.1012 23.0076 12.344 23.1902 12.5178 23.4311C12.656 23.6438 12.7969 24.0298 12.389 25.425C12.2629 25.8549 12.1834 26.1284 12.0699 26.4119C11.9975 26.595 11.9339 26.7255 11.9246 26.7458C11.015 28.6997 11.7908 32.7217 11.7908 32.7217C12.0336 33.977 12.3862 35.2085 12.8446 36.4021" fill="white"/>
<path d="M17.9334 36.9898C16.2843 40.0644 14.071 41.8144 12.3385 41.4553C11.1899 41.2162 10.5392 40.1099 10.1379 39.4268C8.17239 36.0863 9.76559 32.3544 8.97886 28.4311C8.88828 27.8922 8.76453 27.3593 8.60826 26.8357C8.18282 25.5972 7.64225 25.1153 7.60168 23.7529C7.58249 23.1158 7.69433 23.0095 8.04027 22.0155C8.09509 21.8581 8.3237 21.1597 8.73324 19.7435C9.39717 17.4513 9.49256 16.794 9.86153 16.7501C10.1773 16.7123 10.4646 17.1503 10.532 17.2485C11.0134 17.976 10.7393 18.9513 10.4668 19.8729C10.2415 20.6345 9.79467 21.7534 10.0918 22.4031C10.1036 22.4303 10.1176 22.4565 10.1335 22.4815C10.4049 22.8949 11.105 22.6103 11.8215 22.9075C12.1012 23.0076 12.344 23.1902 12.5178 23.4311C12.656 23.6438 12.7969 24.0298 12.389 25.425C12.2629 25.8549 12.1834 26.1284 12.0699 26.4119C11.9975 26.595 11.9339 26.7255 11.9246 26.7458C11.015 28.6997 11.7908 32.7217 11.7908 32.7217C12.0336 33.977 12.3862 35.2085 12.8446 36.4021" stroke="#050A4E" stroke-width="0.219299" stroke-miterlimit="10" stroke-linecap="round"/>
<path d="M35.5778 36.806C36.2513 37.7598 37.0718 38.6009 38.0087 39.2978C38.6907 39.7994 39.5438 40.2972 39.4671 40.8477C39.4386 41.0439 39.3026 41.1613 39.0416 41.3959C37.3295 42.9244 38.3256 42.1991 37.5224 42.7939C35.5696 44.2397 34.5849 44.9623 34.1781 44.9513C33.5158 44.9337 33.4106 44.5977 32.0208 44.3438C31.5592 44.2594 31.0922 44.2085 30.6233 44.1914C31.3013 46.0248 31.9798 47.8581 32.6589 49.6914C33.1572 48.8157 33.8052 48.0342 34.5734 47.3822C36.5504 45.7177 38.0197 46.09 40.7719 44.5862C42.2928 43.7556 44.4934 42.5538 44.5702 40.8789C44.6102 40.0121 44.0658 39.3438 41.7741 37.1415C40.0888 35.5203 38.523 34.091 37.1249 32.8569L35.5778 36.806Z" fill="white"/>
<path d="M24.0308 24.0593C24.2225 24.9517 24.0589 25.8837 23.5747 26.6575C22.7754 27.8039 20.2934 29.3521 20.1098 29.5204C20.0615 29.5648 20.0155 29.6103 20.0149 29.6103C19.925 29.7008 19.8652 29.7814 19.147 30.5177C17.7638 31.9349 17.6569 31.9678 16.8088 32.8445C15.6964 33.9958 15.334 34.5002 14.7633 35.0281C14.5067 35.2655 14.2819 35.4388 14.1443 35.5451C13.7354 35.8619 13.3045 36.1492 12.8548 36.4048" stroke="#050A4E" stroke-width="0.219299" stroke-miterlimit="10" stroke-linecap="round"/>
<path d="M39.5762 40.7821C36.9205 38.3813 33.9625 36.3377 30.7774 34.7031" stroke="#050A4E" stroke-width="0.219299" stroke-miterlimit="10" stroke-linecap="round"/>
<path d="M1.33405 15.5119C1.4826 15.1956 1.56329 14.8518 1.57094 14.5024C1.57858 14.153 1.51302 13.8059 1.37846 13.4834C1.16409 13.0668 0.895986 12.9675 0.712323 12.5783C0.522081 12.1753 0.438205 11.4982 1.06759 10.3359" stroke="#050A4E" stroke-width="0.219299" stroke-miterlimit="10" stroke-linecap="round"/>
<path d="M2.09287 10.3462C2.24141 10.0299 2.3221 9.68598 2.32975 9.33662C2.3374 8.98725 2.27183 8.64016 2.13727 8.31766C1.92236 7.90099 1.65481 7.80176 1.4706 7.4125C1.28091 7.00954 1.19647 6.33245 1.82641 5.17017" stroke="#050A4E" stroke-width="0.219299" stroke-miterlimit="10" stroke-linecap="round"/>
<path d="M3.28323 13.8058C2.79474 12.3085 2.9954 11.4171 3.28323 10.8743C3.5277 10.5203 3.70826 10.1262 3.81668 9.70984C3.91269 9.17223 3.85097 8.61831 3.63903 8.11499" stroke="#050A4E" stroke-width="0.219299" stroke-miterlimit="10" stroke-linecap="round"/>
<path d="M31.2785 17.0891C30.7933 21.1462 26.9687 25.1363 23.5756 24.4269C20.4824 23.7805 18.8031 19.4477 19.109 16.1165C19.4572 12.3254 22.5421 8.03701 25.9879 8.36596C29.3574 8.68614 31.7313 13.2947 31.2785 17.0891Z" fill="white" stroke="#050A4E" stroke-width="0.219299" stroke-miterlimit="10"/>
<path d="M20.2691 8.93396C19.2274 12.3545 25.4846 17.5173 28.461 16.4806C29.1441 16.2432 29.8371 15.3139 30.4583 15.5826C30.6242 15.6827 30.7625 15.8229 30.8603 15.9902C30.9582 16.1575 31.0126 16.3466 31.0186 16.5404C31.0564 17.0157 30.8042 17.371 30.4111 17.9077C29.1677 19.6073 29.0756 19.7169 29.0444 19.7717V19.7767C28.4753 20.826 28.8103 22.5179 29.4408 22.8611C30.5093 23.4433 33.7494 20.8743 35.1535 17.5135C36.044 15.6128 36.2165 13.4541 35.6392 11.4362C34.4786 7.75523 31.0011 6.33472 30.0904 6.00851C27.7856 5.22901 25.2723 5.34168 23.0465 6.3243C20.9308 7.30841 20.4254 8.4197 20.2691 8.93396Z" fill="#050A4E" stroke="#050A4E" stroke-width="0.219299" stroke-miterlimit="10"/>
<path d="M33.6029 56.0127C33.3836 55.2616 33.1709 54.4867 32.9648 53.6881C32.6493 52.4597 32.3752 51.2696 32.1424 50.1179" fill="white"/>
<path d="M33.6029 56.0127C33.3836 55.2616 33.1709 54.4867 32.9648 53.6881C32.6493 52.4597 32.3752 51.2696 32.1424 50.1179" stroke="#050A4E" stroke-width="0.219299" stroke-miterlimit="10" stroke-linecap="round"/>
<path d="M18.26 38.5324C18.2586 38.5324 18.2572 38.5329 18.2561 38.534C18.2551 38.535 18.2545 38.5364 18.2545 38.5379L18.249 38.5433C17.9241 39.0341 17.5388 39.4821 17.1021 39.8767C16.5993 40.3312 16.3482 40.5582 16.0538 40.5603C15.7402 40.5603 15.3625 40.341 14.2309 38.1903C12.9913 35.8328 13.0494 35.3443 13.2282 35.0455C13.4069 34.7467 13.5955 34.7994 14.2764 34.3163C14.7987 33.9341 15.2731 33.4903 15.6893 32.9945C17.1147 31.4117 17.2562 30.029 18.2874 29.029C18.9365 28.3996 20.1185 27.7467 22.4541 27.8635C22.646 28.1486 23.7863 29.8213 25.5681 29.8865C26.3407 29.8717 27.0955 29.6523 27.7556 29.2505C28.5932 28.8224 29.3383 28.2338 29.9486 27.5181C30.3264 27.7341 30.8861 28.0614 31.5506 28.4819C33.7727 29.8887 33.6636 30.119 34.9235 30.8065C36.5885 31.7149 37.4564 31.6837 37.9476 32.6332C38.1411 33.0242 38.2299 33.4587 38.2052 33.8942C38.2052 33.8942 38.2053 34.0137 38.1998 34.1354C38.151 34.9704 36.8949 38.8833 35.3034 38.7829C35.1197 38.7714 35.0814 38.716 34.1181 38.0538C32.2475 36.767 32.0665 36.7517 31.9306 36.8076C31.4147 37.0198 31.4404 38.295 31.4744 39.9682C31.4793 40.1875 31.4925 40.636 31.566 41.4874C31.6674 42.6667 31.799 43.6256 31.8999 44.2835" fill="white"/>
<path d="M18.26 38.5324C18.2586 38.5324 18.2572 38.5329 18.2561 38.534C18.2551 38.535 18.2545 38.5364 18.2545 38.5379L18.249 38.5433C17.9241 39.0341 17.5388 39.4821 17.1021 39.8767C16.5993 40.3312 16.3482 40.5582 16.0538 40.5603C15.7402 40.5603 15.3625 40.341 14.2309 38.1903C12.9913 35.8328 13.0494 35.3443 13.2282 35.0455C13.4069 34.7467 13.5955 34.7994 14.2764 34.3163C14.7987 33.9341 15.2731 33.4903 15.6893 32.9945C17.1147 31.4117 17.2562 30.029 18.2874 29.029C18.9365 28.3996 20.1185 27.7467 22.4541 27.8635C22.646 28.1486 23.7863 29.8213 25.5681 29.8865C26.3407 29.8717 27.0955 29.6523 27.7556 29.2505C28.5932 28.8224 29.3383 28.2338 29.9486 27.5181C30.3264 27.7341 30.8861 28.0614 31.5506 28.4819C33.7727 29.8887 33.6636 30.119 34.9235 30.8065C36.5885 31.7149 37.4564 31.6837 37.9476 32.6332C38.1411 33.0242 38.2299 33.4587 38.2052 33.8942C38.2052 33.8942 38.2053 34.0137 38.1998 34.1354C38.151 34.9704 36.8949 38.8833 35.3034 38.7829C35.1197 38.7714 35.0814 38.716 34.1181 38.0538C32.2475 36.767 32.0665 36.7517 31.9306 36.8076C31.4147 37.0198 31.4404 38.295 31.4744 39.9682C31.4793 40.1875 31.4925 40.636 31.566 41.4874C31.6674 42.6667 31.799 43.6256 31.8999 44.2835" stroke="#050A4E" stroke-width="0.219299" stroke-miterlimit="10" stroke-linecap="round"/>
<path d="M33.4814 46.7393C33.2675 46.379 32.9996 46.0535 32.687 45.7744C32.1494 45.3619 31.6876 44.8589 31.3224 44.2881C30.9324 43.6645 30.6301 42.9902 30.4238 42.2842C30.3065 41.8007 30.3065 41.5282 30.0675 41.378C29.8337 41.2719 29.5689 41.2566 29.3245 41.3352C29.0802 41.4137 28.8738 41.5805 28.7457 41.8029C28.6464 42.0677 28.8224 42.2738 29.0998 42.8802C29.5254 43.4936 29.8081 44.1947 29.9271 44.9317C30.0104 45.6337 29.9683 46.3449 29.8027 47.0321C29.6596 47.9767 29.8405 48.537 30.8005 51.5491C30.999 52.1752 31.1722 52.7223 31.3251 53.1988" fill="white"/>
<path d="M33.4814 46.7393C33.2675 46.379 32.9996 46.0535 32.687 45.7744C32.1494 45.3619 31.6876 44.8589 31.3224 44.2881C30.9324 43.6645 30.6301 42.9902 30.4238 42.2842C30.3065 41.8007 30.3065 41.5282 30.0675 41.378C29.8337 41.2719 29.5689 41.2566 29.3245 41.3352C29.0802 41.4137 28.8738 41.5805 28.7457 41.8029C28.6464 42.0677 28.8224 42.2738 29.0998 42.8802C29.5254 43.4936 29.8081 44.1947 29.9271 44.9317C30.0104 45.6337 29.9683 46.3449 29.8027 47.0321C29.6596 47.9767 29.8405 48.537 30.8005 51.5491C30.999 52.1752 31.1722 52.7223 31.3251 53.1988" stroke="#050A4E" stroke-width="0.219299" stroke-miterlimit="10" stroke-linecap="round"/>
<path d="M31.3252 53.2193C32.3718 56.0702 32.4156 56.3876 32.8296 56.6151C34.1322 57.3334 36.3482 56.4649 36.9414 55.1261C37.1295 54.7007 37.0993 54.3586 35.1437 50.0274C34.6633 48.9035 34.1079 47.8132 33.4814 46.7637" fill="white"/>
<path d="M31.3252 53.2193C32.3718 56.0702 32.4156 56.3876 32.8296 56.6151C34.1322 57.3334 36.3482 56.4649 36.9414 55.1261C37.1295 54.7007 37.0993 54.3586 35.1437 50.0274C34.6633 48.9035 34.1079 47.8132 33.4814 46.7637" stroke="#050A4E" stroke-width="0.219299" stroke-miterlimit="10" stroke-linecap="round"/>
<path d="M31.0179 52.2261C31.5536 52.6031 32.1854 52.8201 32.8397 52.8516C33.8211 52.8516 36.1292 52.5961 36.6018 53.378L36.9483 54.3719C36.9483 54.3719 37.3003 54.9372 36.5415 55.7272C36.1803 56.0928 35.7476 56.3801 35.2706 56.5713C34.7935 56.7625 34.2822 56.8534 33.7684 56.8385C33.7684 56.8385 32.6445 56.8385 32.3375 56.089L31.0179 52.2261Z" fill="#F40009" stroke="#050A4E" stroke-width="0.219299" stroke-miterlimit="10" stroke-linecap="round"/>
<path d="M38.2066 33.8936C39.2648 34.842 40.1145 35.5767 40.6738 36.0537C42.2856 37.4298 44.4128 39.1896 44.5225 40.8508C44.5339 40.951 44.5339 41.0522 44.5225 41.1524C44.4128 42.1228 43.5904 42.7204 42.4556 43.5482C39.6266 45.6151 35.8382 46.1634 34.199 47.6436L34.1441 47.6919C33.9083 47.908 33.7051 48.1573 33.5411 48.432C33.1387 49.1025 32.0421 50.4857 30.2697 49.4737C27.9862 48.1688 28.1617 44.7587 29.8179 44.5553C30.0945 44.4721 30.3769 44.4094 30.6628 44.3678C31.3213 44.2507 31.9998 44.3344 32.6102 44.608C33.0826 44.8336 33.6036 44.9387 34.1266 44.9139C35.3547 44.8481 36.2593 43.9983 37.9972 42.4194C38.688 41.7889 39.2143 41.2187 39.5707 40.824" fill="white"/>
<path d="M38.2066 33.8936C39.2648 34.842 40.1145 35.5767 40.6738 36.0537C42.2856 37.4298 44.4128 39.1896 44.5225 40.8508C44.5339 40.951 44.5339 41.0522 44.5225 41.1524C44.4128 42.1228 43.5904 42.7204 42.4556 43.5482C39.6266 45.6151 35.8382 46.1634 34.199 47.6436L34.1441 47.6919C33.9083 47.908 33.7051 48.1573 33.5411 48.432C33.1387 49.1025 32.0421 50.4857 30.2697 49.4737C27.9862 48.1688 28.1617 44.7587 29.8179 44.5553C30.0945 44.4721 30.3769 44.4094 30.6628 44.3678C31.3213 44.2507 31.9998 44.3344 32.6102 44.608C33.0826 44.8336 33.6036 44.9387 34.1266 44.9139C35.3547 44.8481 36.2593 43.9983 37.9972 42.4194C38.688 41.7889 39.2143 41.2187 39.5707 40.824" stroke="#050A4E" stroke-width="0.219299" stroke-miterlimit="10" stroke-linecap="round"/>
<path d="M29.3026 22.71C29.0547 23.7954 29.0597 24.9234 29.3174 26.0066C29.4395 26.5085 29.6164 26.9955 29.8448 27.4589" stroke="#050A4E" stroke-width="0.219299" stroke-miterlimit="10" stroke-linecap="round"/>
<path d="M18.6701 35.4634C18.2354 38.7529 17.8774 42.2666 17.6389 45.9832C17.4108 49.5353 17.3148 52.9152 17.3159 56.1022" fill="white"/>
<path d="M18.6701 35.4634C18.2354 38.7529 17.8774 42.2666 17.6389 45.9832C17.4108 49.5353 17.3148 52.9152 17.3159 56.1022" stroke="#050A4E" stroke-width="0.219299" stroke-miterlimit="10" stroke-linecap="round"/>
<defs>
<linearGradient id="paint0_linear_0_3404" x1="27" y1="0" x2="27" y2="54" gradientUnits="userSpaceOnUse">
<stop stop-color="#1778F2"/>
<stop offset="1" stop-color="#F40009"/>
</linearGradient>
</defs>
</svg>
